<svg width="97" height="100" viewBox="0 0 97 100" fill="none" xmlns="http://www.w3.org/2000/svg">
<path d="M44.5002 50C49.5002 45.7 50.3002 40.7 47.0002 35C44.7002 31 46.7002 26.7 45.8002 22.5C48.1002 21.8 49.8002 21.8 52.0002 22.5C52.0002 24.2 52.0002 25.9 52.0002 27.8C56.0002 28.3 59.6002 27.7 63.0002 28.9C67.4002 30.5 70.4002 33.5 70.9002 38C72.3002 50.1 66.5002 63.9 55.5002 69.9C47.9002 74 43.2002 75.1 34.2002 66.7C31.8002 69.3 33.8002 72.8 32.7002 75.6C30.8002 76.2 29.2002 76.2 27.0002 75.5C27.0002 72.5 27.1002 69.5 27.0002 66.5C26.9002 64.5 28.3002 62.5 29.1002 62.2C33.5002 60.7 35.4002 57.2 37.7002 53.6C39.4002 50.9 42.1002 49.2 46.1002 50.8C49.1002 52 52.6002 50.7 55.5002 49C60.1002 46.4 64.7002 46.1 69.5002 48.5" stroke="url(#paint0_linear_2134_766)" stroke-width="2" stroke-miterlimit="10" stroke-linecap="round" stroke-linejoin="round"/>
<defs>
<linearGradient id="paint0_linear_2134_766" x1="49.0507" y1="21.975" x2="49.0507" y2="76.0382" gradientUnits="userSpaceOnUse">
<stop stop-color="#005EB8"/>
<stop offset="1" stop-color="#00B5E2"/>
</linearGradient>
</defs>
</svg>
