<svg width="109" height="112" viewBox="0 0 109 112" fill="none" xmlns="http://www.w3.org/2000/svg">
<path d="M61 81.5C61 83.5 61 85.5 61 87.7C63.5 87.7 65.5 87.7 67.7 87.7C67.7 67.1 67.7 46.8 67.7 26.2C65.5 26.2 63.5 26.2 61 26.2C61 43.4 61 60.4 61 77.4" stroke="url(#paint0_linear_2134_789)" stroke-width="2" stroke-miterlimit="10" stroke-linecap="round" stroke-linejoin="round"/>
<path d="M52.4998 50.5C52.4998 42.5 52.4998 34.5 52.4998 26.3C50.4998 26.3 48.4998 26.3 46.2998 26.3C46.2998 46.9 46.2998 67.2 46.2998 87.8C48.4998 87.8 50.4998 87.8 52.9998 87.8C52.9998 78.1 52.9998 68.6 52.9998 59.1C52.9998 57.3 53.2998 55.4 53.4998 53.6" stroke="url(#paint1_linear_2134_789)" stroke-width="2" stroke-miterlimit="10" stroke-linecap="round" stroke-linejoin="round"/>
<path d="M31.5 33.5C37.5 33.7 43.5 33.8 49.5 34" stroke="url(#paint2_linear_2134_789)" stroke-width="2" stroke-miterlimit="10" stroke-linecap="round" stroke-linejoin="round"/>
<path d="M82.5 80.5C76.5 80.3 70.5 80.2 64.5 80" stroke="url(#paint3_linear_2134_789)" stroke-width="2" stroke-miterlimit="10" stroke-linecap="round" stroke-linejoin="round"/>
<path d="M38.5 38C36.2 38.2 33.8 38.3 31.5 38.5" stroke="url(#paint4_linear_2134_789)" stroke-width="2" stroke-miterlimit="10" stroke-linecap="round" stroke-linejoin="round"/>
<path d="M31.5 41.5C33.8 41.7 36.2 41.8 38.5 42" stroke="url(#paint5_linear_2134_789)" stroke-width="2" stroke-miterlimit="10" stroke-linecap="round" stroke-linejoin="round"/>
<path d="M82.5 72.5C80.2 72.3 77.8 72.2 75.5 72" stroke="url(#paint6_linear_2134_789)" stroke-width="2" stroke-miterlimit="10" stroke-linecap="round" stroke-linejoin="round"/>
<path d="M82.5 75.5C80.2 75.7 77.8 75.8 75.5 76" stroke="url(#paint7_linear_2134_789)" stroke-width="2" stroke-miterlimit="10" stroke-linecap="round" stroke-linejoin="round"/>
<defs>
<linearGradient id="paint0_linear_2134_789" x1="64.35" y1="26.2" x2="64.35" y2="87.7" gradientUnits="userSpaceOnUse">
<stop stop-color="#005EB8"/>
<stop offset="1" stop-color="#00B5E2"/>
</linearGradient>
<linearGradient id="paint1_linear_2134_789" x1="49.8998" y1="26.3" x2="49.8998" y2="87.8" gradientUnits="userSpaceOnUse">
<stop stop-color="#005EB8"/>
<stop offset="1" stop-color="#00B5E2"/>
</linearGradient>
<linearGradient id="paint2_linear_2134_789" x1="40.5" y1="33.5" x2="40.5" y2="34" gradientUnits="userSpaceOnUse">
<stop stop-color="#005EB8"/>
<stop offset="1" stop-color="#00B5E2"/>
</linearGradient>
<linearGradient id="paint3_linear_2134_789" x1="73.5" y1="80" x2="73.5" y2="80.5" gradientUnits="userSpaceOnUse">
<stop stop-color="#005EB8"/>
<stop offset="1" stop-color="#00B5E2"/>
</linearGradient>
<linearGradient id="paint4_linear_2134_789" x1="35" y1="38" x2="35" y2="38.5" gradientUnits="userSpaceOnUse">
<stop stop-color="#005EB8"/>
<stop offset="1" stop-color="#00B5E2"/>
</linearGradient>
<linearGradient id="paint5_linear_2134_789" x1="35" y1="41.5" x2="35" y2="42" gradientUnits="userSpaceOnUse">
<stop stop-color="#005EB8"/>
<stop offset="1" stop-color="#00B5E2"/>
</linearGradient>
<linearGradient id="paint6_linear_2134_789" x1="79" y1="72" x2="79" y2="72.5" gradientUnits="userSpaceOnUse">
<stop stop-color="#005EB8"/>
<stop offset="1" stop-color="#00B5E2"/>
</linearGradient>
<linearGradient id="paint7_linear_2134_789" x1="79" y1="75.5" x2="79" y2="76" gradientUnits="userSpaceOnUse">
<stop stop-color="#005EB8"/>
<stop offset="1" stop-color="#00B5E2"/>
</linearGradient>
</defs>
</svg>
