<svg width="88" height="95" viewBox="0 0 88 95" fill="none" xmlns="http://www.w3.org/2000/svg">
<path d="M54.9999 27.5C56.0999 26.7 57.2999 25.9 58.6999 24.9C57.6999 23.6 57.0999 22.1 56.4999 22.1C46.7999 22 37.1999 22 27.4999 22.1C26.8999 22.1 26.2999 23.5 24.8999 25.5C27.1999 26.1 28.8999 26.9 30.4999 27C38.4999 27.3 46.4999 27.4 54.4999 27.6" stroke="url(#paint0_linear_2134_770)" stroke-width="2" stroke-miterlimit="10" stroke-linecap="round" stroke-linejoin="round"/>
<path d="M58 40C47.3 40 36.7 40 26 40" stroke="url(#paint1_linear_2134_770)" stroke-width="2" stroke-miterlimit="10" stroke-linecap="round" stroke-linejoin="round"/>
<path d="M28.9997 28C27.9997 30.9 26.9997 33.9 25.8997 36.8C25.6997 36.7 25.3997 36.6 25.1997 36.5C25.1997 49.5 25.1997 62.5 25.1997 76C34.3997 76 43.3997 76 52.3997 76" stroke="url(#paint2_linear_2134_770)" stroke-width="2" stroke-miterlimit="10" stroke-linecap="round" stroke-linejoin="round"/>
<path d="M51.5 71C43 71 34.5 71 26 71" stroke="url(#paint3_linear_2134_770)" stroke-width="2" stroke-miterlimit="10" stroke-linecap="round" stroke-linejoin="round"/>
<path d="M64.5 66C64.7 64.3 65 62.7 65 61C64.9 58 63.1 56.1 60 56.1C56.9 56.1 55.2 58 55 61C54.8 64.2 55 67.3 55 70.5C55 73.8 56.8 75.9 60 75.9C63.2 75.9 65 73.8 65 70.5C65 69.2 64.7 67.8 64.5 66.5" stroke="url(#paint4_linear_2134_770)" stroke-width="2" stroke-miterlimit="10" stroke-linecap="round" stroke-linejoin="round"/>
<path d="M54.9999 28C53.8999 32 57.0999 33.9 58.9999 36.7C58.9999 41.9 58.9999 47.2 58.9999 52.5" stroke="url(#paint5_linear_2134_770)" stroke-width="2" stroke-miterlimit="10" stroke-linecap="round" stroke-linejoin="round"/>
<path d="M64 66C61.3 66 58.7 66 56 66" stroke="url(#paint6_linear_2134_770)" stroke-width="2" stroke-miterlimit="10" stroke-linecap="round" stroke-linejoin="round"/>
<path d="M40.4997 47.5C39.7997 49.1 38.9997 50.8 38.0997 52.9C37.1997 53 35.7997 53.1 34.1997 53.2C34.1997 54.9 34.1997 56.2 34.1997 57.8C35.7997 57.9 37.0997 58 38.5997 58.2C38.8997 60 39.0997 61.5 39.3997 63.3C40.9997 63.3 42.4997 63.3 44.2997 63.3C44.6997 61.6 44.9997 60.1 45.3997 58.2C46.6997 58.1 48.0997 58 49.6997 57.9C49.6997 56.2 49.6997 54.9 49.6997 53.3C48.0997 53.2 46.7997 53.1 45.2997 52.9C44.9997 51.1 44.7997 49.6 44.3997 47.6C43.1997 47.6 42.0997 47.6 40.8997 47.6" stroke="url(#paint7_linear_2134_770)" stroke-width="2" stroke-miterlimit="10" stroke-linecap="round" stroke-linejoin="round"/>
<defs>
<linearGradient id="paint0_linear_2134_770" x1="41.7999" y1="22.025" x2="41.7999" y2="27.6" gradientUnits="userSpaceOnUse">
<stop stop-color="#005EB8"/>
<stop offset="1" stop-color="#00B5E2"/>
</linearGradient>
<linearGradient id="paint1_linear_2134_770" x1="42" y1="40" x2="42" y2="41" gradientUnits="userSpaceOnUse">
<stop stop-color="#005EB8"/>
<stop offset="1" stop-color="#00B5E2"/>
</linearGradient>
<linearGradient id="paint2_linear_2134_770" x1="38.7997" y1="28" x2="38.7997" y2="76" gradientUnits="userSpaceOnUse">
<stop stop-color="#005EB8"/>
<stop offset="1" stop-color="#00B5E2"/>
</linearGradient>
<linearGradient id="paint3_linear_2134_770" x1="38.75" y1="71" x2="38.75" y2="72" gradientUnits="userSpaceOnUse">
<stop stop-color="#005EB8"/>
<stop offset="1" stop-color="#00B5E2"/>
</linearGradient>
<linearGradient id="paint4_linear_2134_770" x1="59.9556" y1="56.1" x2="59.9556" y2="75.9" gradientUnits="userSpaceOnUse">
<stop stop-color="#005EB8"/>
<stop offset="1" stop-color="#00B5E2"/>
</linearGradient>
<linearGradient id="paint5_linear_2134_770" x1="56.8877" y1="28" x2="56.8877" y2="52.5" gradientUnits="userSpaceOnUse">
<stop stop-color="#005EB8"/>
<stop offset="1" stop-color="#00B5E2"/>
</linearGradient>
<linearGradient id="paint6_linear_2134_770" x1="60" y1="66" x2="60" y2="67" gradientUnits="userSpaceOnUse">
<stop stop-color="#005EB8"/>
<stop offset="1" stop-color="#00B5E2"/>
</linearGradient>
<linearGradient id="paint7_linear_2134_770" x1="41.9497" y1="47.5" x2="41.9497" y2="63.3" gradientUnits="userSpaceOnUse">
<stop stop-color="#005EB8"/>
<stop offset="1" stop-color="#00B5E2"/>
</linearGradient>
</defs>
</svg>
