<svg width="64" height="64" viewBox="0 0 64 64" fill="none" xmlns="http://www.w3.org/2000/svg">
<g clip-path="url(#clip0_2246_699)">
<path d="M0 42.55C0.4625 41.925 0.9375 41.3125 1.375 40.675C2.7 38.7625 4 36.825 5.3125 34.9125C5.9625 33.975 6.6125 33.0375 7.2875 32.1125C7.4 31.9625 7.5875 31.825 7.775 31.75C9.875 30.9375 11.9875 30.1375 14.1 29.3375C17.8875 27.9 21.6625 26.4625 25.5 25C25.825 25.35 26.175 25.7125 26.4875 26.0875C27.725 27.5875 28.9625 29.0875 30.2 30.5875C30.95 31.5 31.7125 32.4 32.475 33.3C33.975 35.0875 35.475 36.8875 36.9875 38.675C37.8875 39.75 38.825 40.7875 39.725 41.8625C39.85 42.025 39.9375 42.3125 39.9 42.5C39.0625 45.7625 38.225 49.025 37.35 52.275C36.9625 53.725 36.525 55.1625 36.1 56.6625C35.9375 56.6625 35.75 56.6625 35.5625 56.6625C27.5625 56.6625 19.5625 56.6625 11.575 56.675C11.1875 56.675 10.95 56.575 10.7125 56.2625C9.8875 55.15 9.0125 54.0625 8.1625 52.975C7.4375 52.05 6.7 51.125 5.975 50.1875C4.4375 48.225 2.9 46.25 1.3625 44.2875C0.925 43.7375 0.4625 43.2 0 42.6625C0 42.625 0 42.5875 0 42.55ZM11.8375 52.45C12.875 51.175 13.8875 49.9375 14.875 48.675C16.2 46.975 17.5 45.2625 18.825 43.5625C18.925 43.425 19.0875 43.3375 19.175 43.1875C19.5375 42.65 20.0625 42.1375 20.2125 41.5375C20.7375 39.525 21.125 37.475 21.55 35.45C21.8375 34.0875 22.1 32.725 22.375 31.3625C22.5 30.75 22.6125 30.125 22.75 29.425C20.5375 30.2625 18.425 31.0625 16.3125 31.8625C14.1875 32.675 12.0625 33.475 9.9375 34.3C9.7375 34.375 9.5375 34.525 9.425 34.7C8.425 36.125 7.4625 37.5625 6.475 38.9875C5.6625 40.15 4.85 41.3125 4 42.525C4.6375 43.3 5.25 44.05 5.85 44.8C6.7 45.875 7.5375 46.9625 8.375 48.0375C9.4625 49.4375 10.5375 50.8375 11.625 52.2375C11.675 52.3 11.7375 52.35 11.8375 52.45ZM15.1125 53.5375C16.8125 53.5375 18.3375 53.5375 19.875 53.5375C24.275 53.5375 28.6875 53.5375 33.0875 53.55C33.4625 53.55 33.65 53.475 33.7125 53.075C33.8375 52.4125 34.025 51.7625 34.1875 51.1C34.4375 50.1 34.675 49.1 34.9375 48.1125C35.3 46.8 35.6875 45.5 36.0625 44.2125C35.95 44.1625 35.9375 44.15 35.9125 44.15C31.525 44.15 27.1375 44.1375 22.75 44.1375C22.625 44.1375 22.45 44.225 22.3625 44.3375C21.95 44.8 21.5625 45.2875 21.175 45.775C19.9625 47.3375 18.7625 48.9125 17.5375 50.475C16.7875 51.45 16 52.425 15.1125 53.5375ZM34.65 40.9625C34.525 40.7875 34.4625 40.6875 34.3875 40.6C33 38.95 31.6125 37.325 30.2375 35.6625C28.925 34.0875 27.6375 32.5 26.325 30.9125C26.2 30.7625 26.0625 30.6375 25.8625 30.45C25.15 34.0125 24.4625 37.475 23.7625 40.95C27.3875 40.9625 30.975 40.9625 34.65 40.9625Z" fill="white"/>
<path d="M45 41.3015C47.4125 40.5265 49.7375 39.7765 52.075 39.039C54.125 38.389 56.1875 37.7515 58.225 37.064C58.675 36.914 58.8875 37.0265 59.075 37.414C59.425 38.1515 59.8 38.889 60.175 39.614C61.1 41.4015 62.025 43.189 62.9625 44.964C63.1375 45.289 63.1375 45.489 62.85 45.764C61.5875 46.964 60.35 48.1765 59.1 49.389C58.8125 49.6765 58.4875 49.839 58.0375 49.8265C56.8125 49.8015 55.6 49.839 54.375 49.8015C54.1125 49.789 53.8 49.664 53.6125 49.489C52.4375 48.389 51.2875 47.239 50.125 46.1265C48.6375 44.7015 47.1375 43.2765 45.6375 41.8515C45.4625 41.6765 45.25 41.514 45 41.3015ZM57.125 40.7515C55.125 41.389 53.1625 42.014 51.125 42.6515C51.3 42.8265 51.4 42.964 51.525 43.0765C52.6375 44.1265 53.7625 45.1515 54.85 46.214C55.1875 46.539 55.5125 46.664 55.975 46.7015C56.9125 46.789 57.625 46.5265 58.175 45.7765C58.35 45.539 58.5625 45.3015 58.8125 45.1765C59.2875 44.9265 59.2 44.6515 58.9875 44.289C58.65 43.7265 58.3375 43.1515 58.025 42.5765C57.7375 41.989 57.45 41.4015 57.125 40.7515Z" fill="white"/>
<g clip-path="url(#clip1_2246_699)">
<path d="M42.8654 13.5455C42.6837 13.3638 42.4373 13.2618 42.1804 13.2618C41.9234 13.2618 41.677 13.3638 41.4954 13.5455C41.3137 13.7272 41.2116 13.9736 41.2116 14.2305C41.2116 14.4875 41.3137 14.7339 41.4954 14.9155L43.5504 16.9706L41.4954 19.0256C41.3137 19.2073 41.2116 19.4537 41.2116 19.7106C41.2116 19.9675 41.3137 20.2139 41.4954 20.3956C41.677 20.5773 41.9234 20.6793 42.1804 20.6793C42.4373 20.6793 42.6837 20.5773 42.8654 20.3956L44.9204 18.3406L46.9754 20.3956C47.1571 20.5773 47.4035 20.6793 47.6604 20.6793C47.9174 20.6793 48.1638 20.5773 48.3455 20.3956C48.5271 20.2139 48.6292 19.9675 48.6292 19.7106C48.6292 19.4537 48.5271 19.2073 48.3455 19.0256L46.2904 16.9706L48.3455 14.9155C48.5271 14.7339 48.6292 14.4875 48.6292 14.2305C48.6292 13.9736 48.5271 13.7272 48.3455 13.5455C48.1638 13.3638 47.9174 13.2618 47.6604 13.2618C47.4035 13.2618 47.1571 13.3638 46.9754 13.5455L44.9204 15.6005L42.8654 13.5455Z" fill="white"/>
<path fill-rule="evenodd" clip-rule="evenodd" d="M35.1017 7.15209C29.6791 12.5746 29.6791 21.3665 35.1017 26.789C40.5242 32.2116 49.3161 32.2116 54.7386 26.789C60.1612 21.3665 60.1612 12.5746 54.7386 7.15209C49.3161 1.72955 40.5242 1.72955 35.1017 7.15209ZM36.4717 25.419C34.231 23.1783 32.9722 20.1393 32.9722 16.9706C32.9722 13.8018 34.231 10.7628 36.4717 8.52211C38.7124 6.28144 41.7514 5.02265 44.9201 5.02265C48.0889 5.02265 51.1279 6.28144 53.3686 8.52211C55.6093 10.7628 56.8681 13.8018 56.8681 16.9706C56.8681 20.1393 55.6093 23.1783 53.3686 25.419C51.1279 27.6597 48.0889 28.9185 44.9201 28.9185C41.7514 28.9185 38.7124 27.6597 36.4717 25.419Z" fill="white"/>
</g>
</g>
<defs>
<clipPath id="clip0_2246_699">
<rect width="64" height="64" fill="white"/>
</clipPath>
<clipPath id="clip1_2246_699">
<rect width="31" height="31" fill="white" transform="translate(23 16.9706) rotate(-45)"/>
</clipPath>
</defs>
</svg>
