<svg width="64" height="64" viewBox="0 0 64 64" fill="none" xmlns="http://www.w3.org/2000/svg">
<path d="M4.2373 44.5875C4.6998 43.9625 5.1748 43.35 5.6123 42.7125C6.9373 40.8 8.2373 38.8625 9.5498 36.95C10.1998 36.0125 10.8498 35.075 11.5248 34.15C11.6373 34 11.8248 33.8625 12.0123 33.7875C14.1123 32.975 16.2248 32.175 18.3373 31.375C22.1248 29.9375 25.8998 28.5 29.7373 27.0375C30.0623 27.3875 30.4123 27.75 30.7248 28.125C31.9623 29.625 33.1998 31.125 34.4373 32.625C35.1873 33.5375 35.9498 34.4375 36.7123 35.3375C38.2123 37.125 39.7123 38.925 41.2248 40.7125C42.1248 41.7875 43.0623 42.825 43.9623 43.9C44.0873 44.0625 44.1748 44.35 44.1373 44.5375C43.2998 47.8 42.4623 51.0625 41.5873 54.3125C41.1998 55.7625 40.7623 57.2 40.3373 58.7C40.1748 58.7 39.9873 58.7 39.7998 58.7C31.7998 58.7 23.7998 58.7 15.8123 58.7125C15.4248 58.7125 15.1873 58.6125 14.9498 58.3C14.1248 57.1875 13.2498 56.1 12.3998 55.0125C11.6748 54.0875 10.9373 53.1625 10.2123 52.225C8.6748 50.2625 7.1373 48.2875 5.5998 46.325C5.1623 45.775 4.6998 45.2375 4.2373 44.7C4.2373 44.6625 4.2373 44.625 4.2373 44.5875ZM16.0748 54.4875C17.1123 53.2125 18.1248 51.975 19.1123 50.7125C20.4373 49.0125 21.7373 47.3 23.0623 45.6C23.1623 45.4625 23.3248 45.375 23.4123 45.225C23.7748 44.6875 24.2998 44.175 24.4498 43.575C24.9748 41.5625 25.3623 39.5125 25.7873 37.4875C26.0748 36.125 26.3373 34.7625 26.6123 33.4C26.7373 32.7875 26.8498 32.1625 26.9873 31.4625C24.7748 32.3 22.6623 33.1 20.5498 33.9C18.4248 34.7125 16.2998 35.5125 14.1748 36.3375C13.9748 36.4125 13.7748 36.5625 13.6623 36.7375C12.6623 38.1625 11.6998 39.6 10.7123 41.025C9.8998 42.1875 9.0873 43.35 8.2373 44.5625C8.8748 45.3375 9.4873 46.0875 10.0873 46.8375C10.9373 47.9125 11.7748 49 12.6123 50.075C13.6998 51.475 14.7748 52.875 15.8623 54.275C15.9123 54.3375 15.9748 54.3875 16.0748 54.4875ZM19.3498 55.575C21.0498 55.575 22.5748 55.575 24.1123 55.575C28.5123 55.575 32.9248 55.575 37.3248 55.5875C37.6998 55.5875 37.8873 55.5125 37.9498 55.1125C38.0748 54.45 38.2623 53.8 38.4248 53.1375C38.6748 52.1375 38.9123 51.1375 39.1748 50.15C39.5373 48.8375 39.9248 47.5375 40.2998 46.25C40.1873 46.2 40.1748 46.1875 40.1498 46.1875C35.7623 46.1875 31.3748 46.175 26.9873 46.175C26.8623 46.175 26.6873 46.2625 26.5998 46.375C26.1873 46.8375 25.7998 47.325 25.4123 47.8125C24.1998 49.375 22.9998 50.95 21.7748 52.5125C21.0248 53.4875 20.2373 54.4625 19.3498 55.575ZM38.8873 43C38.7623 42.825 38.6998 42.725 38.6248 42.6375C37.2373 40.9875 35.8498 39.3625 34.4748 37.7C33.1623 36.125 31.8748 34.5375 30.5623 32.95C30.4373 32.8 30.2998 32.675 30.0998 32.4875C29.3873 36.05 28.6998 39.5125 27.9998 42.9875C31.6248 43 35.2123 43 38.8873 43Z" fill="white"/>
<path d="M60.3877 29.325C59.8752 30.025 59.3502 30.7125 58.8627 31.4125C57.6627 33.1375 56.4877 34.875 55.2877 36.6C54.6127 37.575 53.9502 38.5375 53.2502 39.4875C53.1377 39.6375 52.8877 39.7625 52.7002 39.7625C50.1752 39.775 47.6502 39.775 45.1252 39.7625C44.9627 39.7625 44.7502 39.675 44.6377 39.5625C44.2377 39.15 43.8627 38.725 43.5002 38.2875C42.1877 36.7125 40.9002 35.1125 39.5877 33.5375C38.0252 31.65 36.4502 29.7875 34.8752 27.9125C34.1752 27.075 33.4752 26.2375 32.7627 25.4C32.1752 24.7125 31.5877 24.0375 31.0127 23.3375C30.8877 23.1875 30.7877 22.975 30.7877 22.7875C30.7752 18.15 30.7752 13.5125 30.7877 8.875C30.7877 8.825 30.8002 8.775 30.8252 8.675C31.9752 8.45 33.1252 8.2125 34.2877 8C36.5252 7.575 38.7627 7.15 41.0002 6.725C43.5627 6.2375 46.1252 5.75 48.6877 5.2625C48.7877 5.2375 48.8752 5.2 48.9752 5.1625C49.0752 5.1625 49.1877 5.1625 49.2877 5.1625C50.5002 5.9375 51.7002 6.725 52.9127 7.5C55.4002 9.0875 57.8877 10.6875 60.3752 12.275C60.3877 17.9625 60.3877 23.6375 60.3877 29.325ZM47.2127 36.6375C48.5502 36.6375 49.8127 36.65 51.0877 36.625C51.2127 36.625 51.3627 36.5 51.4502 36.3875C51.9752 35.675 52.4877 34.9625 52.9877 34.2375C54.2627 32.4 55.5252 30.55 56.7752 28.6875C56.9252 28.4625 57.0252 28.15 57.0252 27.875C57.0377 23.375 57.0377 18.8875 57.0502 14.3875C57.0502 14.05 56.9502 13.85 56.6627 13.675C54.6627 12.4125 52.6877 11.125 50.7002 9.85C50.4377 9.6875 50.1627 9.5625 49.9002 9.425C49.2002 12.0125 48.5502 14.5625 47.8252 17.0875C47.3377 18.7625 47.1877 20.45 47.2002 22.1875C47.2502 26.775 47.2127 31.35 47.2127 35.9375C47.2127 36.15 47.2127 36.3625 47.2127 36.6375ZM46.7002 8.85C42.3752 9.675 38.2252 10.475 34.0627 11.2625C34.0627 14.3375 34.0627 17.4 34.0627 20.475C34.2252 20.45 34.3627 20.4375 34.5002 20.4C37.6502 19.65 40.8002 18.9125 43.9377 18.15C44.1002 18.1125 44.2877 17.875 44.3377 17.7C44.6502 16.525 44.9377 15.3375 45.2377 14.1625C45.4627 13.275 45.6877 12.375 45.9252 11.4875C46.1502 10.65 46.4127 9.825 46.7002 8.85ZM43.9502 21.3875C41.0627 22.075 38.2377 22.75 35.3252 23.45C35.4877 23.6625 35.6002 23.8125 35.7252 23.9625C36.9752 25.4375 38.2377 26.9125 39.4752 28.4C40.8002 29.9875 42.1002 31.5875 43.4127 33.1875C43.5502 33.35 43.7252 33.475 43.9502 33.675C43.9502 29.525 43.9502 25.5 43.9502 21.3875Z" fill="white"/>
<path d="M9.5 15.575C11.9125 14.8 14.2375 14.05 16.575 13.3125C18.625 12.6625 20.6875 12.025 22.725 11.3375C23.175 11.1875 23.3875 11.3 23.575 11.6875C23.925 12.425 24.3 13.1625 24.675 13.8875C25.6 15.675 26.525 17.4625 27.4625 19.2375C27.6375 19.5625 27.6375 19.7625 27.35 20.0375C26.0875 21.2375 24.85 22.45 23.6 23.6625C23.3125 23.95 22.9875 24.1125 22.5375 24.1C21.3125 24.075 20.1 24.1125 18.875 24.075C18.6125 24.0625 18.3 23.9375 18.1125 23.7625C16.9375 22.6625 15.7875 21.5125 14.625 20.4C13.1375 18.975 11.6375 17.55 10.1375 16.125C9.9625 15.95 9.75 15.7875 9.5 15.575ZM21.625 15.025C19.625 15.6625 17.6625 16.2875 15.625 16.925C15.8 17.1 15.9 17.2375 16.025 17.35C17.1375 18.4 18.2625 19.425 19.35 20.4875C19.6875 20.8125 20.0125 20.9375 20.475 20.975C21.4125 21.0625 22.125 20.8 22.675 20.05C22.85 19.8125 23.0625 19.575 23.3125 19.45C23.7875 19.2 23.7 18.925 23.4875 18.5625C23.15 18 22.8375 17.425 22.525 16.85C22.2375 16.2625 21.95 15.675 21.625 15.025Z" fill="white"/>
</svg>
