<svg width="64" height="64" viewBox="0 0 64 64" fill="none" xmlns="http://www.w3.org/2000/svg">
<path fill-rule="evenodd" clip-rule="evenodd" d="M11.0963 8.07467C12.0958 7.8737 13.1342 8.07718 13.984 8.64052C14.8338 9.20386 15.4255 10.0811 15.6296 11.08C15.651 11.16 15.699 11.316 15.7843 11.5387C15.955 11.9827 16.271 12.6867 16.8243 13.5467C17.6776 14.876 19.1256 16.624 21.5483 18.372C24.1483 17.7107 27.4883 17.0347 30.5403 16.8587C31.5127 16.8002 32.4878 16.8002 33.4603 16.8587C36.5123 17.0347 39.8523 17.712 42.4523 18.372C44.875 16.624 46.323 14.876 47.1776 13.5467C47.5913 12.9144 47.9393 12.2416 48.2163 11.5387C48.2804 11.3726 48.3365 11.2035 48.3843 11.032C48.5951 10.034 49.1932 9.16037 50.0474 8.60276C50.9015 8.04515 51.9419 7.84909 52.9404 8.05758C53.9389 8.26607 54.814 8.86209 55.3736 9.7149C55.9332 10.5677 56.1318 11.6077 55.9256 12.6067L55.923 12.62C55.8883 12.784 55.8523 12.94 55.783 13.184C55.6758 13.5582 55.5521 13.9274 55.4123 14.2907C55.0696 15.184 54.5216 16.368 53.6576 17.712C52.4483 19.5933 50.6443 21.752 47.9843 23.8453C48.2496 25.1187 48.4443 26.6147 48.4443 28.2227C48.4443 30.7493 47.7416 32.652 46.6243 34.2333C45.5616 35.7347 44.1416 36.9107 42.8136 38.0093L42.747 38.0627C41.003 39.5067 39.3256 40.9067 38.0443 42.9893C36.7816 45.0427 35.8523 47.8533 35.8523 52.1493C35.8523 53.1709 35.4465 54.1507 34.7241 54.8731C34.0017 55.5955 33.0219 56.0013 32.0003 56.0013C30.9787 56.0013 29.9989 55.5955 29.2765 54.8731C28.5541 54.1507 28.1483 53.1709 28.1483 52.1493C28.1483 47.8533 27.219 45.0427 25.9563 42.9893C24.675 40.908 22.9963 39.5067 21.2523 38.0627L21.187 38.0093C19.859 36.9107 18.4403 35.7347 17.3763 34.2333C16.259 32.652 15.5563 30.7493 15.5563 28.2227C15.5563 26.6147 15.751 25.1187 16.0163 23.8467C13.3563 21.7507 11.5523 19.5933 10.3443 17.7133C9.64318 16.6352 9.05475 15.4878 8.58829 14.2893C8.4048 13.8099 8.24943 13.3202 8.12295 12.8227L8.12029 12.8133L8.07762 12.6213L8.07495 12.608C7.97564 12.112 7.97501 11.6012 8.07311 11.1049C8.1712 10.6086 8.36609 10.1365 8.64665 9.71554C8.92721 9.29457 9.28795 8.93299 9.70826 8.65145C10.1286 8.36991 10.6002 8.17392 11.0963 8.07467ZM11.6203 10.6893C11.9264 10.6282 12.2442 10.6902 12.5048 10.8619C12.7654 11.0337 12.9478 11.3013 13.0123 11.6067L13.015 11.6227L13.0203 11.644V11.6467L13.055 11.7773L13.0643 11.808C13.107 11.9587 13.179 12.1907 13.2936 12.4907C13.523 13.0907 13.9203 13.9613 14.5803 14.9893C15.6736 16.6907 17.5056 18.8453 20.5336 20.9173L21.0376 21.2627L21.6283 21.1067C24.2243 20.42 27.6576 19.6947 30.695 19.52H30.699C31.5657 19.4676 32.4349 19.4676 33.3016 19.52H33.3056C36.343 19.6947 39.7776 20.42 42.3723 21.1067L42.963 21.2627L43.467 20.9173C46.4936 18.8453 48.3256 16.6907 49.4203 14.9893C50.0803 13.9627 50.4776 13.0907 50.707 12.4907C50.8133 12.2145 50.9045 11.9327 50.9803 11.6467V11.644L50.9856 11.6227L50.9896 11.6067C51.0578 11.3042 51.2417 11.0405 51.502 10.872C51.7623 10.7036 52.0782 10.6438 52.382 10.7056C52.6859 10.7673 52.9534 10.9456 53.1273 11.2023C53.3012 11.459 53.3676 11.7736 53.3123 12.0787C53.2855 12.2056 53.2539 12.3315 53.2176 12.456C53.1563 12.6693 53.0616 12.968 52.9216 13.3373C52.5211 14.3641 52.0162 15.347 51.415 16.2707C50.2683 18.0533 48.475 20.1773 45.7003 22.2373L44.9843 22.768L45.2003 23.632C45.5176 24.8987 45.7776 26.4947 45.7776 28.2227C45.7776 29.1627 45.6576 29.9653 45.4443 30.6707C45.4075 30.6678 45.3706 30.6665 45.3336 30.6667L43.9483 33.3333H20.0536L18.667 30.6667C18.63 30.6665 18.5931 30.6678 18.5563 30.6707C18.325 29.8756 18.2127 29.0506 18.223 28.2227C18.223 26.4947 18.483 24.9 18.8003 23.632L19.0163 22.768L18.3016 22.2373C15.527 20.1787 13.7323 18.052 12.587 16.2707C11.9857 15.347 11.4808 14.3641 11.0803 13.3373C10.9683 13.0481 10.8691 12.754 10.783 12.456L10.779 12.4387C10.7576 12.363 10.7376 12.287 10.719 12.2107L10.6883 12.072C10.6302 11.7652 10.6956 11.448 10.8701 11.1891C11.0446 10.9302 11.3142 10.7506 11.6203 10.6893ZM20.0536 33.3333C20.831 34.2453 21.811 35.064 22.9536 36.0093L23.0016 36.0493C24.711 37.4627 26.699 39.1093 28.227 41.592C29.787 44.1267 30.815 47.4387 30.815 52.148C30.815 52.4624 30.9398 52.7639 31.1621 52.9862C31.3844 53.2084 31.6859 53.3333 32.0003 53.3333C32.3147 53.3333 32.6162 53.2084 32.8384 52.9862C33.0607 52.7639 33.1856 52.4624 33.1856 52.148C33.1856 47.4387 34.2123 44.1267 35.7736 41.592C37.3016 39.1093 39.2896 37.464 40.999 36.0493L41.0483 36.0093C42.1896 35.0627 43.1696 34.2453 43.9483 33.3333H20.0536Z" fill="white"/>
<path d="M31.8065 38.9072C32.2044 39.2902 32.8375 39.2782 33.2205 38.8802L39.4618 32.396C39.8448 31.998 39.8327 31.365 39.4348 30.982C39.0369 30.599 38.4038 30.6111 38.0208 31.009L32.473 36.7728L26.7092 31.225C26.3113 30.842 25.6782 30.8541 25.2952 31.252C24.9122 31.6499 24.9243 32.2829 25.3222 32.6659L31.8065 38.9072ZM33.4998 38.1677L32.9998 11.9809L31.0002 12.0191L31.5002 38.2059L33.4998 38.1677Z" fill="white"/>
</svg>
