<svg width="64" height="64" viewBox="0 0 64 64" fill="none" xmlns="http://www.w3.org/2000/svg">
<g clip-path="url(#clip0_2246_693)">
<path d="M29.6094 49.1625C29.0969 49.8625 28.5719 50.55 28.0844 51.25C26.8844 52.975 25.7094 54.7125 24.5094 56.4375C23.8344 57.4125 23.1719 58.375 22.4719 59.325C22.3594 59.475 22.1094 59.6 21.9219 59.6C19.3969 59.6125 16.8719 59.6125 14.3469 59.6C14.1844 59.6 13.9719 59.5125 13.8594 59.4C13.4594 58.9875 13.0844 58.5625 12.7219 58.125C11.4094 56.55 10.1219 54.95 8.80938 53.375C7.24688 51.4875 5.67187 49.625 4.09687 47.75C3.39687 46.9125 2.69688 46.075 1.98438 45.2375C1.39688 44.55 0.809375 43.875 0.234375 43.175C0.109375 43.025 0.009375 42.8125 0.009375 42.625C-0.003125 37.9875 -0.003125 33.35 0.009375 28.7125C0.009375 28.6625 0.0218754 28.6125 0.0468754 28.5125C1.19688 28.2875 2.34687 28.05 3.50937 27.8375C5.74687 27.4125 7.98437 26.9875 10.2219 26.5625C12.7844 26.075 15.3469 25.5875 17.9094 25.1C18.0094 25.075 18.0969 25.0375 18.1969 25C18.2969 25 18.4094 25 18.5094 25C19.7219 25.775 20.9219 26.5625 22.1344 27.3375C24.6219 28.925 27.1094 30.525 29.5969 32.1125C29.6094 37.8 29.6094 43.475 29.6094 49.1625ZM16.4344 56.475C17.7719 56.475 19.0344 56.4875 20.3094 56.4625C20.4344 56.4625 20.5844 56.3375 20.6719 56.225C21.1969 55.5125 21.7094 54.8 22.2094 54.075C23.4844 52.2375 24.7469 50.3875 25.9969 48.525C26.1469 48.3 26.2469 47.9875 26.2469 47.7125C26.2594 43.2125 26.2594 38.725 26.2719 34.225C26.2719 33.8875 26.1719 33.6875 25.8844 33.5125C23.8844 32.25 21.9094 30.9625 19.9219 29.6875C19.6594 29.525 19.3844 29.4 19.1219 29.2625C18.4219 31.85 17.7719 34.4 17.0469 36.925C16.5594 38.6 16.4094 40.2875 16.4219 42.025C16.4719 46.6125 16.4344 51.1875 16.4344 55.775C16.4344 55.9875 16.4344 56.2 16.4344 56.475ZM15.9219 28.6875C11.5969 29.5125 7.44687 30.3125 3.28437 31.1C3.28437 34.175 3.28437 37.2375 3.28437 40.3125C3.44687 40.2875 3.58437 40.275 3.72187 40.2375C6.87187 39.4875 10.0219 38.75 13.1594 37.9875C13.3219 37.95 13.5094 37.7125 13.5594 37.5375C13.8719 36.3625 14.1594 35.175 14.4594 34C14.6844 33.1125 14.9094 32.2125 15.1469 31.325C15.3719 30.4875 15.6344 29.6625 15.9219 28.6875ZM13.1719 41.225C10.2844 41.9125 7.45938 42.5875 4.54688 43.2875C4.70938 43.5 4.82187 43.65 4.94687 43.8C6.19687 45.275 7.45937 46.75 8.69687 48.2375C10.0219 49.825 11.3219 51.425 12.6344 53.025C12.7719 53.1875 12.9469 53.3125 13.1719 53.5125C13.1719 49.3625 13.1719 45.3375 13.1719 41.225Z" fill="white"/>
<path d="M39 37.3015C41.4125 36.5265 43.7375 35.7765 46.075 35.039C48.125 34.389 50.1875 33.7515 52.225 33.064C52.675 32.914 52.8875 33.0265 53.075 33.414C53.425 34.1515 53.8 34.889 54.175 35.614C55.1 37.4015 56.025 39.189 56.9625 40.964C57.1375 41.289 57.1375 41.489 56.85 41.764C55.5875 42.964 54.35 44.1765 53.1 45.389C52.8125 45.6765 52.4875 45.839 52.0375 45.8265C50.8125 45.8015 49.6 45.839 48.375 45.8015C48.1125 45.789 47.8 45.664 47.6125 45.489C46.4375 44.389 45.2875 43.239 44.125 42.1265C42.6375 40.7015 41.1375 39.2765 39.6375 37.8515C39.4625 37.6765 39.25 37.514 39 37.3015ZM51.125 36.7515C49.125 37.389 47.1625 38.014 45.125 38.6515C45.3 38.8265 45.4 38.964 45.525 39.0765C46.6375 40.1265 47.7625 41.1515 48.85 42.214C49.1875 42.539 49.5125 42.664 49.975 42.7015C50.9125 42.789 51.625 42.5265 52.175 41.7765C52.35 41.539 52.5625 41.3015 52.8125 41.1765C53.2875 40.9265 53.2 40.6515 52.9875 40.289C52.65 39.7265 52.3375 39.1515 52.025 38.5765C51.7375 37.989 51.45 37.4015 51.125 36.7515Z" fill="white"/>
<path d="M30.4987 7.33C30.9067 6.97 31.3507 6.628 31.8307 6.304C32.3227 5.98 32.8507 5.698 33.4147 5.458C33.9787 5.218 34.5907 5.032 35.2507 4.9C35.9107 4.756 36.6247 4.684 37.3927 4.684C38.4367 4.684 39.3847 4.828 40.2367 5.116C41.1007 5.404 41.8387 5.818 42.4507 6.358C43.0627 6.886 43.5367 7.528 43.8727 8.284C44.2087 9.04 44.3767 9.886 44.3767 10.822C44.3767 11.734 44.2447 12.526 43.9807 13.198C43.7167 13.858 43.3867 14.434 42.9907 14.926C42.5947 15.418 42.1567 15.844 41.6767 16.204C41.2087 16.564 40.7647 16.906 40.3447 17.23C39.9247 17.542 39.5587 17.854 39.2467 18.166C38.9467 18.466 38.7667 18.808 38.7067 19.192L38.2927 21.82H35.2507L34.9447 18.886C34.8727 18.322 34.9507 17.83 35.1787 17.41C35.4187 16.978 35.7307 16.588 36.1147 16.24C36.5107 15.88 36.9487 15.538 37.4287 15.214C37.9087 14.878 38.3587 14.518 38.7787 14.134C39.1987 13.738 39.5467 13.3 39.8227 12.82C40.1107 12.328 40.2547 11.746 40.2547 11.074C40.2547 10.642 40.1707 10.258 40.0027 9.922C39.8467 9.574 39.6247 9.28 39.3367 9.04C39.0487 8.788 38.7007 8.596 38.2927 8.464C37.8967 8.332 37.4647 8.266 36.9967 8.266C36.3127 8.266 35.7307 8.344 35.2507 8.5C34.7827 8.644 34.3807 8.812 34.0447 9.004C33.7207 9.184 33.4447 9.352 33.2167 9.508C32.9887 9.652 32.7847 9.724 32.6047 9.724C32.1727 9.724 31.8607 9.544 31.6687 9.184L30.4987 7.33ZM33.9007 28.552C33.9007 28.18 33.9667 27.826 34.0987 27.49C34.2427 27.154 34.4347 26.866 34.6747 26.626C34.9147 26.386 35.2027 26.194 35.5387 26.05C35.8747 25.906 36.2347 25.834 36.6187 25.834C37.0027 25.834 37.3567 25.906 37.6807 26.05C38.0167 26.194 38.3047 26.386 38.5447 26.626C38.7967 26.866 38.9947 27.154 39.1387 27.49C39.2827 27.826 39.3547 28.18 39.3547 28.552C39.3547 28.936 39.2827 29.296 39.1387 29.632C38.9947 29.956 38.7967 30.238 38.5447 30.478C38.3047 30.718 38.0167 30.904 37.6807 31.036C37.3567 31.18 37.0027 31.252 36.6187 31.252C36.2347 31.252 35.8747 31.18 35.5387 31.036C35.2027 30.904 34.9147 30.718 34.6747 30.478C34.4347 30.238 34.2427 29.956 34.0987 29.632C33.9667 29.296 33.9007 28.936 33.9007 28.552Z" fill="white"/>
</g>
<defs>
<clipPath id="clip0_2246_693">
<rect width="64" height="64" fill="white"/>
</clipPath>
</defs>
</svg>
