<svg width="40" height="40" viewBox="0 0 40 40" fill="none" xmlns="http://www.w3.org/2000/svg">
<path d="M20 0.875C23.7826 0.875 27.4802 1.99666 30.6253 4.09814C33.7704 6.19963 36.2217 9.18654 37.6692 12.6812C39.1167 16.1758 39.4955 20.0212 38.7575 23.7311C38.0196 27.441 36.1981 30.8487 33.5234 33.5234C30.8487 36.1981 27.441 38.0196 23.7311 38.7575C20.0212 39.4955 16.1758 39.1167 12.6812 37.6692C9.18653 36.2217 6.19962 33.7704 4.09813 30.6253C1.99665 27.4802 0.874992 23.7826 0.874992 20C0.880947 14.9296 2.89781 10.0685 6.48315 6.48316C10.0685 2.89782 14.9296 0.880955 20 0.875ZM20 36.875C23.3376 36.875 26.6002 35.8853 29.3752 34.031C32.1503 32.1768 34.3132 29.5413 35.5905 26.4578C36.8677 23.3743 37.2019 19.9813 36.5507 16.7079C35.8996 13.4344 34.2924 10.4276 31.9324 8.06757C29.5724 5.70756 26.5656 4.10037 23.2921 3.44925C20.0187 2.79812 16.6257 3.1323 13.5422 4.40953C10.4587 5.68676 7.82319 7.84967 5.96894 10.6248C4.11469 13.3998 3.12499 16.6624 3.12499 20C3.12996 24.474 4.90944 28.7633 8.07304 31.9269C11.2366 35.0905 15.526 36.87 20 36.875ZM16.205 13.295L22.9081 20L16.205 26.705C16.0945 26.808 16.0058 26.9322 15.9443 27.0702C15.8828 27.2082 15.8498 27.3572 15.8471 27.5082C15.8444 27.6593 15.8722 27.8093 15.9288 27.9494C15.9854 28.0895 16.0696 28.2167 16.1764 28.3236C16.2833 28.4304 16.4105 28.5146 16.5506 28.5712C16.6907 28.6278 16.8407 28.6556 16.9918 28.6529C17.1428 28.6502 17.2918 28.6172 17.4298 28.5557C17.5678 28.4942 17.692 28.4055 17.795 28.295L25.295 20.795C25.5057 20.5841 25.624 20.2981 25.624 20C25.624 19.7019 25.5057 19.4159 25.295 19.205L17.795 11.705C17.5817 11.5063 17.2997 11.3981 17.0082 11.4032C16.7168 11.4084 16.4387 11.5264 16.2326 11.7326C16.0264 11.9387 15.9084 12.2168 15.9032 12.5082C15.8981 12.7997 16.0063 13.0817 16.205 13.295Z" fill="#005EB8"/>
</svg>
