<svg width="40" height="40" viewBox="0 0 40 40" fill="none" xmlns="http://www.w3.org/2000/svg">
<path d="M20 0.875C16.2174 0.875 12.5198 1.99666 9.37473 4.09814C6.22964 6.19963 3.77834 9.18654 2.33081 12.6812C0.883286 16.1758 0.504548 20.0212 1.24249 23.7311C1.98043 27.441 3.80191 30.8487 6.47659 33.5234C9.15127 36.1981 12.559 38.0196 16.2689 38.7575C19.9788 39.4955 23.8242 39.1167 27.3188 37.6692C30.8135 36.2217 33.8004 33.7704 35.9019 30.6253C38.0033 27.4802 39.125 23.7826 39.125 20C39.1191 14.9296 37.1022 10.0685 33.5168 6.48316C29.9315 2.89782 25.0704 0.880955 20 0.875ZM20 36.875C16.6624 36.875 13.3998 35.8853 10.6248 34.031C7.84968 32.1768 5.68677 29.5413 4.40954 26.4578C3.13231 23.3743 2.79813 19.9813 3.44926 16.7079C4.10038 13.4344 5.70757 10.4276 8.06758 8.06757C10.4276 5.70756 13.4344 4.10037 16.7079 3.44925C19.9813 2.79812 23.3743 3.1323 26.4578 4.40953C29.5413 5.68676 32.1768 7.84967 34.0311 10.6248C35.8853 13.3998 36.875 16.6624 36.875 20C36.87 24.474 35.0906 28.7633 31.927 31.9269C28.7634 35.0905 24.474 36.87 20 36.875ZM23.795 13.295L17.0919 20L23.795 26.705C23.9055 26.808 23.9942 26.9322 24.0557 27.0702C24.1172 27.2082 24.1502 27.3572 24.1529 27.5082C24.1556 27.6593 24.1278 27.8093 24.0712 27.9494C24.0146 28.0895 23.9304 28.2167 23.8236 28.3236C23.7167 28.4304 23.5895 28.5146 23.4494 28.5712C23.3093 28.6278 23.1593 28.6556 23.0082 28.6529C22.8572 28.6502 22.7082 28.6172 22.5702 28.5557C22.4322 28.4942 22.308 28.4055 22.205 28.295L14.705 20.795C14.4943 20.5841 14.376 20.2981 14.376 20C14.376 19.7019 14.4943 19.4159 14.705 19.205L22.205 11.705C22.4183 11.5063 22.7003 11.3981 22.9918 11.4032C23.2832 11.4084 23.5613 11.5264 23.7674 11.7326C23.9736 11.9387 24.0916 12.2168 24.0968 12.5082C24.1019 12.7997 23.9937 13.0817 23.795 13.295Z" fill="#005EB8"/>
</svg>
