<svg width="48" height="36" viewBox="0 0 48 36" fill="none" xmlns="http://www.w3.org/2000/svg">
<path d="M47.5 18C47.5 18.3978 47.342 18.7794 47.0607 19.0607C46.7794 19.342 46.3978 19.5 46 19.5H2C1.60218 19.5 1.22064 19.342 0.93934 19.0607C0.658035 18.7794 0.5 18.3978 0.5 18C0.5 17.6022 0.658035 17.2206 0.93934 16.9393C1.22064 16.658 1.60218 16.5 2 16.5H46C46.3978 16.5 46.7794 16.658 47.0607 16.9393C47.342 17.2206 47.5 17.6022 47.5 18ZM2 3.5H46C46.3978 3.5 46.7794 3.34196 47.0607 3.06066C47.342 2.77935 47.5 2.39782 47.5 2C47.5 1.60218 47.342 1.22064 47.0607 0.93934C46.7794 0.658035 46.3978 0.5 46 0.5H2C1.60218 0.5 1.22064 0.658035 0.93934 0.93934C0.658035 1.22064 0.5 1.60218 0.5 2C0.5 2.39782 0.658035 2.77935 0.93934 3.06066C1.22064 3.34196 1.60218 3.5 2 3.5ZM46 32.5H2C1.60218 32.5 1.22064 32.658 0.93934 32.9393C0.658035 33.2206 0.5 33.6022 0.5 34C0.5 34.3978 0.658035 34.7794 0.93934 35.0607C1.22064 35.342 1.60218 35.5 2 35.5H46C46.3978 35.5 46.7794 35.342 47.0607 35.0607C47.342 34.7794 47.5 34.3978 47.5 34C47.5 33.6022 47.342 33.2206 47.0607 32.9393C46.7794 32.658 46.3978 32.5 46 32.5Z" fill="url(#paint0_linear_2134_1028)"/>
<defs>
<linearGradient id="paint0_linear_2134_1028" x1="24" y1="0.5" x2="24" y2="35.5" gradientUnits="userSpaceOnUse">
<stop stop-color="#005EB8"/>
<stop offset="1" stop-color="#00B5E2"/>
</linearGradient>
</defs>
</svg>
