<svg width="630" height="542" viewBox="0 0 630 542" fill="none" xmlns="http://www.w3.org/2000/svg">
<path fill-rule="evenodd" clip-rule="evenodd" d="M114.976 367.908C-75.478 294.007 -0.323618 44.602 131.893 3.4026C186.747 -13.6899 247.246 43.0217 246.878 78.2226C246.702 93.4607 238.165 108.296 229.259 123.776C217.584 144.077 205.277 165.443 210.501 190.162C219.705 233.7 230.013 307.165 203.454 342.044C176.895 376.906 150.196 381.55 114.976 367.908ZM128.598 338.19C142.324 343.511 149.056 343.156 152.755 342.173C156.559 341.173 163.975 337.69 174.739 323.532C181.278 314.954 185.73 296.845 185.327 269.788C184.977 244.359 180.506 217.236 176.089 196.322C169.006 162.782 183.557 134.757 193.952 116.261L198.861 107.635C202.35 101.604 205.137 96.7502 207.591 91.558C210.887 84.6242 211.799 80.5285 211.799 77.9001C211.816 77.0616 211.203 72.8046 206.662 65.7902C201.681 58.3258 195.349 51.6997 187.939 46.1984C171.057 33.5402 154.719 30.3314 143.148 33.9434C93.8867 49.2944 47.5704 108.425 37.1747 177.811C27.1822 244.358 51.9006 308.423 128.598 338.19ZM497.13 3.4026C629.347 44.602 704.519 294.007 514.047 367.908C478.827 381.566 452.128 376.906 425.569 342.044C399.01 307.165 409.318 233.7 418.522 190.162C423.746 165.443 411.439 144.077 399.764 123.76C390.858 108.296 382.32 93.4446 382.163 78.2387C381.777 43.0217 442.293 -13.6899 497.13 3.4026ZM476.268 342.189C479.967 343.156 486.716 343.511 500.425 338.19C577.122 308.439 601.841 244.358 591.866 177.811C581.453 108.425 535.154 49.2944 485.892 33.9434C474.322 30.3314 457.966 33.5402 441.084 46.1984C433.125 52.1646 426.638 59.1951 422.378 65.7741C417.82 72.8046 417.207 77.0616 417.224 77.9001C417.242 80.5285 418.153 84.6404 421.432 91.558C423.886 96.7502 426.691 101.604 430.162 107.635C431.652 110.247 433.3 113.085 435.071 116.261C445.466 134.757 460.034 162.766 452.952 196.322C448.517 217.236 444.064 244.375 443.696 269.788C443.31 296.845 447.763 314.954 454.284 323.532C465.066 337.69 472.481 341.189 476.268 342.189Z" fill="#4CC6E4"/>
<path d="M396.696 239.328L397.923 255.404H398.203C398.203 255.404 398.028 255.404 397.765 255.453C393.88 256.102 390.194 257.521 386.966 259.613C381.882 262.935 374.414 270.32 374.414 288.96V522.241H339.352V288.944C339.352 260.468 351.799 243.036 366.613 233.313C374.243 228.346 382.991 225.023 392.208 223.59C393.139 223.454 394.074 223.347 395.013 223.267L395.293 223.235H395.468C395.468 223.235 395.503 223.235 396.696 239.311M232.327 239.328C231.135 255.404 231.1 255.404 231.1 255.404H230.837C230.837 255.404 231.012 255.404 231.258 255.453C235.149 256.1 238.84 257.52 242.074 259.613C247.158 262.935 254.626 270.32 254.626 288.96V522.241H289.688V288.944C289.688 260.468 277.241 243.036 262.41 233.313C254.78 228.345 246.032 225.022 236.815 223.59C235.884 223.454 234.949 223.347 234.01 223.267L233.747 223.235H233.554L232.327 239.328Z" fill="#4CC6E4"/>
<circle cx="113" cy="130" r="19" stroke="#4CC6E4" stroke-width="10"/>
<circle cx="125" cy="235" r="12" stroke="#4CC6E4" stroke-width="10"/>
<circle cx="538" cy="206" r="18" stroke="#4CC6E4" stroke-width="10"/>
<circle cx="491" cy="130" r="24" fill="#4CC6E4"/>
<circle cx="498" cy="259" r="12" fill="#4CC6E4"/>
<circle cx="77" cy="182" r="12" fill="#4CC6E4"/>
<circle cx="160" cy="98" r="8" fill="white"/>
<circle cx="77" cy="243" r="8" fill="white"/>
<circle cx="144" cy="301" r="8" fill="white"/>
<circle cx="482" cy="312" r="8" fill="white"/>
<circle cx="478" cy="206" r="8" fill="white"/>
<circle cx="490" cy="78" r="4" fill="white"/>
<circle cx="548" cy="139" r="4" fill="white"/>
<circle cx="104" cy="284" r="4" fill="white"/>
<circle cx="542" cy="267" r="4" fill="white"/>
<circle cx="506" cy="150" r="4" fill="white"/>
<circle cx="129" cy="174" r="4" fill="white"/>
<circle cx="96" cy="106" r="4" fill="white"/>
<rect x="255" y="473" width="35" height="69" rx="17.5" fill="#4CC6E4"/>
<rect x="339" y="473" width="35" height="69" rx="17.5" fill="#4CC6E4"/>
</svg>
