<svg width="48" height="48" viewBox="0 0 48 48" fill="none" xmlns="http://www.w3.org/2000/svg">
<path d="M18 43.9C13.9333 43.4333 10.5833 41.6833 7.95 38.65C5.31667 35.6167 4 31.9333 4 27.6C4 24.2667 5.32533 20.642 7.976 16.726C10.6267 12.81 14.6347 8.568 20 4C25.3667 8.56667 29.3753 12.8087 32.026 16.726C34.6767 20.6433 36.0013 24.268 36 27.6V28H32V27.6C32 25.1667 30.9913 22.4167 28.974 19.35C26.9567 16.2833 23.9653 12.9333 20 9.3C16.0333 12.9333 13.042 16.2833 11.026 19.35C9.01 22.4167 8.00133 25.1667 8 27.6C8 30.8333 8.93333 33.5667 10.8 35.8C12.6667 38.0333 15.0667 39.3833 18 39.85V43.9ZM22 44V32H32V40H25V44H22ZM34 44V32H37V36H41V32H44V44H41V39H37V44H34ZM25 37H29V35H25V37Z" fill="white"/>
</svg>
