<svg width="64" height="64" viewBox="0 0 64 64" fill="none" xmlns="http://www.w3.org/2000/svg">
<path fill-rule="evenodd" clip-rule="evenodd" d="M16.7309 41.0053C2.24553 34.8947 7.96152 14.272 18.0175 10.8653C22.1895 9.452 26.7909 14.1413 26.7629 17.052C26.7495 18.312 26.1002 19.5387 25.4229 20.8187C24.5349 22.4973 23.5989 24.264 23.9962 26.308C24.6962 29.908 25.4802 35.9827 23.4602 38.8667C21.4402 41.7493 19.4095 42.1333 16.7309 41.0053ZM17.7669 38.548C18.8109 38.988 19.3229 38.9587 19.6042 38.8773C19.8935 38.7947 20.4575 38.5067 21.2762 37.336C21.7735 36.6267 22.1122 35.1293 22.0815 32.892C22.0549 30.7893 21.7149 28.5467 21.3789 26.8173C20.8402 24.044 21.9469 21.7267 22.7375 20.1973L23.1109 19.484C23.3762 18.9853 23.5882 18.584 23.7749 18.1547C24.0255 17.5813 24.0949 17.2427 24.0949 17.0253C24.0962 16.956 24.0495 16.604 23.7042 16.024C23.3253 15.4068 22.8437 14.8589 22.2802 14.404C20.9962 13.3573 19.7535 13.092 18.8735 13.3907C15.1269 14.66 11.6042 19.5493 10.8135 25.2867C10.0535 30.7893 11.9335 36.0867 17.7669 38.548ZM45.7962 10.8653C55.8522 14.272 61.5695 34.8947 47.0829 41.0053C44.4042 42.1347 42.3735 41.7493 40.3535 38.8667C38.3335 35.9827 39.1175 29.908 39.8175 26.308C40.2149 24.264 39.2789 22.4973 38.3909 20.8173C37.7135 19.5387 37.0642 18.3107 37.0522 17.0533C37.0229 14.1413 41.6255 9.452 45.7962 10.8653ZM44.2095 38.8787C44.4909 38.9587 45.0042 38.988 46.0469 38.548C51.8802 36.088 53.7602 30.7893 53.0015 25.2867C52.2095 19.5493 48.6882 14.66 44.9415 13.3907C44.0615 13.092 42.8175 13.3573 41.5335 14.404C40.9282 14.8973 40.4349 15.4787 40.1109 16.0227C39.7642 16.604 39.7175 16.956 39.7189 17.0253C39.7202 17.2427 39.7895 17.5827 40.0389 18.1547C40.2255 18.584 40.4389 18.9853 40.7029 19.484C40.8162 19.7 40.9415 19.9347 41.0762 20.1973C41.8669 21.7267 42.9749 24.0427 42.4362 26.8173C42.0989 28.5467 41.7602 30.7907 41.7322 32.892C41.7029 35.1293 42.0415 36.6267 42.5375 37.336C43.3575 38.5067 43.9215 38.796 44.2095 38.8787Z" fill="white"/>
<path d="M38.1576 30.3733L38.251 31.7027H38.2723C38.2723 31.7027 38.259 31.7027 38.239 31.7067C37.9435 31.7603 37.6632 31.8777 37.4176 32.0507C37.031 32.3253 36.463 32.936 36.463 34.4773V53.7667H33.7963V34.476C33.7963 32.1213 34.743 30.68 35.8696 29.876C36.45 29.4653 37.1153 29.1905 37.8163 29.072C37.8871 29.0608 37.9583 29.0519 38.0296 29.0453L38.051 29.0427H38.0643C38.0643 29.0427 38.067 29.0427 38.1576 30.372M25.6563 30.3733C25.5656 31.7027 25.563 31.7027 25.563 31.7027H25.543C25.543 31.7027 25.5563 31.7027 25.575 31.7067C25.8709 31.7602 26.1517 31.8776 26.3976 32.0507C26.7843 32.3253 27.3523 32.936 27.3523 34.4773V53.7667H30.019V34.476C30.019 32.1213 29.0723 30.68 27.9443 29.876C27.364 29.4652 26.6987 29.1904 25.9976 29.072C25.9268 29.0608 25.8557 29.0519 25.7843 29.0453L25.7643 29.0427H25.7496L25.6563 30.3733Z" fill="white"/>
</svg>
