<svg width="64" height="64" viewBox="0 0 64 64" fill="none" xmlns="http://www.w3.org/2000/svg">
<path fill-rule="evenodd" clip-rule="evenodd" d="M11.0958 8.07467C12.0953 7.8737 13.1338 8.07718 13.9835 8.64052C14.8333 9.20386 15.425 10.0811 15.6291 11.08C15.6505 11.16 15.6985 11.316 15.7838 11.5387C15.9545 11.9827 16.2705 12.6867 16.8238 13.5467C17.6771 14.876 19.1251 16.624 21.5478 18.372C24.1478 17.7107 27.4878 17.0347 30.5398 16.8587C31.5123 16.8002 32.4873 16.8002 33.4598 16.8587C36.5118 17.0347 39.8518 17.712 42.4518 18.372C44.8745 16.624 46.3225 14.876 47.1771 13.5467C47.5908 12.9144 47.9388 12.2416 48.2158 11.5387C48.2799 11.3726 48.336 11.2035 48.3838 11.032C48.5947 10.034 49.1927 9.16037 50.0469 8.60276C50.901 8.04515 51.9414 7.84909 52.9399 8.05758C53.9384 8.26607 54.8135 8.86209 55.3731 9.7149C55.9327 10.5677 56.1313 11.6077 55.9251 12.6067L55.9225 12.62C55.8878 12.784 55.8518 12.94 55.7825 13.184C55.6753 13.5582 55.5516 13.9274 55.4118 14.2907C55.0691 15.184 54.5211 16.368 53.6571 17.712C52.4478 19.5933 50.6438 21.752 47.9838 23.8453C48.2491 25.1187 48.4438 26.6147 48.4438 28.2227C48.4438 30.7493 47.7411 32.652 46.6238 34.2333C45.5611 35.7347 44.1411 36.9107 42.8131 38.0093L42.7465 38.0627C41.0025 39.5067 39.3251 40.9067 38.0438 42.9893C36.7811 45.0427 35.8518 47.8533 35.8518 52.1493C35.8518 53.1709 35.446 54.1507 34.7236 54.8731C34.0012 55.5955 33.0214 56.0013 31.9998 56.0013C30.9782 56.0013 29.9984 55.5955 29.276 54.8731C28.5536 54.1507 28.1478 53.1709 28.1478 52.1493C28.1478 47.8533 27.2185 45.0427 25.9558 42.9893C24.6745 40.908 22.9958 39.5067 21.2518 38.0627L21.1865 38.0093C19.8585 36.9107 18.4398 35.7347 17.3758 34.2333C16.2585 32.652 15.5558 30.7493 15.5558 28.2227C15.5558 26.6147 15.7505 25.1187 16.0158 23.8467C13.3558 21.7507 11.5518 19.5933 10.3438 17.7133C9.64269 16.6352 9.05426 15.4878 8.5878 14.2893C8.40431 13.8099 8.24894 13.3202 8.12247 12.8227L8.1198 12.8133L8.07713 12.6213L8.07447 12.608C7.97515 12.112 7.97452 11.6012 8.07262 11.1049C8.17071 10.6086 8.3656 10.1365 8.64616 9.71554C8.92673 9.29457 9.28746 8.93299 9.70777 8.65145C10.1281 8.36991 10.5997 8.17392 11.0958 8.07467ZM11.6198 10.6893C11.9259 10.6282 12.2437 10.6902 12.5043 10.8619C12.7649 11.0337 12.9473 11.3013 13.0118 11.6067L13.0145 11.6227L13.0198 11.644V11.6467L13.0545 11.7773L13.0638 11.808C13.1065 11.9587 13.1785 12.1907 13.2931 12.4907C13.5225 13.0907 13.9198 13.9613 14.5798 14.9893C15.6731 16.6907 17.5051 18.8453 20.5331 20.9173L21.0371 21.2627L21.6278 21.1067C24.2238 20.42 27.6571 19.6947 30.6945 19.52H30.6985C31.5652 19.4676 32.4344 19.4676 33.3011 19.52H33.3051C36.3425 19.6947 39.7771 20.42 42.3718 21.1067L42.9625 21.2627L43.4665 20.9173C46.4931 18.8453 48.3251 16.6907 49.4198 14.9893C50.0798 13.9627 50.4771 13.0907 50.7065 12.4907C50.8128 12.2145 50.904 11.9327 50.9798 11.6467V11.644L50.9851 11.6227L50.9891 11.6067C51.0573 11.3042 51.2412 11.0405 51.5015 10.872C51.7618 10.7036 52.0777 10.6438 52.3815 10.7056C52.6854 10.7673 52.9529 10.9456 53.1268 11.2023C53.3007 11.459 53.3671 11.7736 53.3118 12.0787C53.285 12.2056 53.2534 12.3315 53.2171 12.456C53.1558 12.6693 53.0611 12.968 52.9211 13.3373C52.5206 14.3641 52.0157 15.347 51.4145 16.2707C50.2678 18.0533 48.4745 20.1773 45.6998 22.2373L44.9838 22.768L45.1998 23.632C45.5171 24.8987 45.7771 26.4947 45.7771 28.2227C45.7771 29.1627 45.6571 29.9653 45.4438 30.6707C45.407 30.6678 45.3701 30.6665 45.3331 30.6667H18.6665C18.6295 30.6665 18.5926 30.6678 18.5558 30.6707C18.3245 29.8756 18.2122 29.0506 18.2225 28.2227C18.2225 26.4947 18.4825 24.9 18.7998 23.632L19.0158 22.768L18.3011 22.2373C15.5265 20.1787 13.7318 18.052 12.5865 16.2707C11.9852 15.347 11.4803 14.3641 11.0798 13.3373C10.9678 13.0481 10.8686 12.754 10.7825 12.456L10.7785 12.4387C10.7571 12.363 10.7371 12.287 10.7185 12.2107L10.6878 12.072C10.6297 11.7652 10.6951 11.448 10.8696 11.1891C11.0441 10.9302 11.3137 10.7506 11.6198 10.6893ZM20.0531 33.3333C20.8305 34.2453 21.8105 35.064 22.9531 36.0093L23.0011 36.0493C24.7105 37.4627 26.6985 39.1093 28.2265 41.592C29.7865 44.1267 30.8145 47.4387 30.8145 52.148C30.8145 52.4624 30.9393 52.7639 31.1616 52.9862C31.3839 53.2084 31.6854 53.3333 31.9998 53.3333C32.3142 53.3333 32.6157 53.2084 32.838 52.9862C33.0603 52.7639 33.1851 52.4624 33.1851 52.148C33.1851 47.4387 34.2118 44.1267 35.7731 41.592C37.3011 39.1093 39.2891 37.464 40.9985 36.0493L41.0478 36.0093C42.1891 35.0627 43.1691 34.2453 43.9478 33.3333H20.0531Z" fill="white"/>
</svg>
