<svg width="119" height="119" viewBox="0 0 119 119" fill="none" xmlns="http://www.w3.org/2000/svg">
<path d="M76.6988 16.2695C77.3729 17.2689 78.2793 17.8035 79.5344 17.6641C80.1154 17.6176 80.6965 17.6408 81.2775 17.6641C81.8818 17.6873 82.3932 17.9662 82.4397 18.5705C82.5326 19.4305 83.0207 19.5699 83.718 19.5002C84.5082 19.4305 84.9963 19.7559 85.5773 20.3602C86.1352 20.918 87.1113 21.0807 87.9248 21.3596C88.5756 21.592 89.1799 21.8244 89.2496 22.6379C89.2729 22.8936 89.4356 23.1957 89.6447 23.1492C90.7371 22.8936 91.6668 23.6605 92.0852 24.2416C92.8057 25.241 94.5953 24.8924 94.6418 26.5193C94.6418 26.7982 94.9672 26.9377 95.2461 26.9609C95.525 26.9842 95.9898 26.9377 96.0131 27.0539C96.4314 28.2857 97.6865 28.7971 98.2676 29.8662C98.3141 29.9592 98.2908 30.1916 98.3141 30.1916C99.9178 30.3775 99.8016 32.5391 101.359 32.7715C101.591 32.7947 101.94 32.7947 101.917 33.0504C101.8 34.0033 102.428 34.6076 102.893 35.2816C103.613 36.3275 104.032 37.5129 105.008 38.4426C105.682 39.0701 105.821 40.116 105.938 41.0689C105.984 41.557 105.984 42.0684 105.938 42.5797C105.891 43.277 105.961 43.8115 106.89 43.7418C107.518 43.6953 107.588 44.2764 107.681 44.718C107.774 45.1596 107.82 45.6477 107.774 46.0893C107.657 47.2049 108.146 47.5768 109.191 47.4373C109.191 50.7609 109.191 54.1078 109.191 57.4314C108.982 57.5012 108.866 57.3617 108.773 57.199C108.169 53.7359 107.425 50.2961 106.216 46.9725C104.194 41.4176 101.196 36.467 97.2682 32.051C93.0148 27.2631 87.9481 23.6141 82.184 20.8947C79.0231 19.4072 75.7459 18.2916 72.3061 17.6408C70.7256 17.2457 69.1219 17.083 67.5182 16.8273C67.1695 16.7809 66.7047 16.8506 66.6582 16.2928C70.0283 16.2695 73.3752 16.2695 76.6988 16.2695Z" fill="#FEFEFE"/>
<path d="M16.2695 49.2736C16.502 49.2504 16.8738 49.2969 16.8738 49.0645C16.8971 47.9721 17.8268 47.1818 17.7105 45.9965C17.6176 45.09 17.943 44.1371 18.9889 43.742C19.5932 43.5096 19.5234 42.975 19.5234 42.4637C19.5699 41.441 19.2213 40.3486 20.6391 39.7443C21.1039 39.5352 21.1969 38.3266 21.3596 37.5363C21.5223 36.8391 21.6617 36.258 22.5449 36.258C22.7076 36.258 23.033 36.1418 23.033 36.0488C23.2654 34.3522 25.1713 33.4457 25.1016 31.6096C25.0783 31.2609 25.3107 30.8891 25.5664 30.8658C26.6123 30.8426 26.9377 30.1221 27.2863 29.3551C27.4258 29.0529 27.7512 28.8438 28.1463 28.8438C28.4484 28.8438 28.7273 28.7043 28.7738 28.4021C28.89 27.4725 29.2619 26.8914 30.3078 26.8914C30.424 26.8914 30.6564 26.6125 30.6564 26.473C30.61 25.1947 31.5164 25.1715 32.3531 25.1482C32.9574 25.125 33.3758 24.9391 33.8406 24.4742C34.3752 23.9396 34.7703 23.1262 35.7697 23.1959C36.1881 23.2191 36.2578 22.7775 36.2811 22.4057C36.3275 21.6852 36.7691 21.4992 37.4199 21.383C38.4891 21.1738 39.7441 21.2668 40.1857 19.8723C40.302 19.5236 40.6738 19.5469 40.976 19.5469C41.557 19.5469 42.1381 19.5236 42.7191 19.5469C43.277 19.5701 43.6256 19.4771 43.765 18.8031C43.9277 17.9664 44.625 17.5945 45.4152 17.7107C46.6006 17.8734 47.6697 17.3389 48.8086 17.1994C49.3896 17.1297 49.2037 16.6416 49.2502 16.293C52.2717 16.293 55.2932 16.293 58.3146 16.293C58.1752 17.0367 57.5012 16.9437 57.0363 16.9902C52.0857 17.5945 47.3676 19.0123 42.8818 21.1273C39.2328 22.8473 35.8859 25.032 32.8412 27.6816C32.2137 28.2395 31.4699 28.6811 30.9354 29.3551C30.4008 29.8432 29.8895 30.3777 29.3781 30.9123C23.893 36.7693 20.0813 43.5328 18.0824 51.3189C17.5943 53.1783 17.1992 55.0609 17.0133 56.9668C16.9668 57.4781 17.0365 58.1521 16.2928 58.3613C16.2695 55.3166 16.2695 52.2951 16.2695 49.2736Z" fill="#FEFEFE"/>
<path d="M108.983 57.1758C109.076 57.2455 109.145 57.3385 109.238 57.4082C109.238 61.1967 109.238 65.0084 109.238 68.7969C108.773 69.0525 108.913 69.5406 108.843 69.9125C105.659 90.4121 89.4592 106.263 68.8898 109.006C68.6807 109.029 68.4018 108.936 68.332 109.238C64.6133 109.238 60.8945 109.238 57.1758 109.238C55.8975 108.634 54.5029 108.657 53.1781 108.378C33.9336 104.381 19.0354 88.1809 16.6646 68.6574C16.5949 68.1693 16.7576 67.565 16.2695 67.1699C16.2695 67.0072 16.2695 66.8678 16.2695 66.7051C16.6879 66.4029 16.316 65.7754 16.7809 65.4965C17.2922 65.6359 17.2225 66.0775 17.2689 66.4494C18.0127 75.8857 21.3131 84.2994 27.2863 91.6207C34.6076 100.592 44.0672 106.008 55.4791 108.006C57.8963 108.425 60.3367 108.657 62.7539 108.657C66.984 108.634 71.1676 108.076 75.235 106.891C81.5104 105.078 87.1582 102.149 92.1553 97.9658C98.2215 92.899 102.661 86.6469 105.52 79.2791C107.286 74.7004 108.239 69.959 108.518 65.0316C108.657 62.7074 108.239 60.4064 108.448 58.0822C108.541 57.7104 108.425 57.2455 108.983 57.1758Z" fill="url(#paint0_linear_2134_888)"/>
<path d="M30.6794 29.2617C35.9786 24.0555 42.2307 20.4994 49.2964 18.3146C51.8995 17.5244 54.5259 16.9434 57.222 16.618C57.5938 16.5715 58.0819 16.7109 58.3608 16.2461C59.1278 16.2461 59.918 16.2461 60.685 16.2461C62.0796 16.432 63.4741 16.432 64.8686 16.2461C65.4962 16.2461 66.1005 16.2461 66.728 16.2461C68.4014 16.7807 70.1679 16.6877 71.8645 17.1525C72.1202 17.2223 72.3759 17.292 72.6315 17.3617C72.5153 17.6174 72.2829 17.7336 72.0272 17.8033C70.0284 17.7801 68.0528 17.3385 66.054 17.1758C61.5682 16.7807 57.1755 17.2455 52.8292 18.1984C44.9501 19.9184 38.0704 23.5906 32.0739 28.9363C31.7485 29.2152 31.4696 29.5406 31.0048 29.5871C30.7723 29.5871 30.6096 29.5174 30.6794 29.2617Z" fill="url(#paint1_linear_2134_888)"/>
<path d="M16.2695 58.3378C16.8273 57.3616 16.6646 56.2228 16.8971 55.1769C17.1992 53.8056 17.3619 52.3878 17.85 51.063C18.1289 51.2024 18.2451 51.4349 18.3148 51.7138C18.2219 53.6894 17.5711 55.5487 17.4316 57.5243C17.3852 58.1286 17.3154 58.7562 17.2922 59.3604C17.2689 59.7788 17.3154 60.2204 16.8738 60.4761C16.1533 60.1042 16.8041 59.2442 16.2695 58.8026C16.2695 58.6399 16.2695 58.5005 16.2695 58.3378Z" fill="url(#paint2_linear_2134_888)"/>
<path d="M16.2693 58.8027C17.1525 59.1514 16.4553 59.9648 16.7574 60.4762C17.292 62.1496 17.2687 63.7998 16.7574 65.4732C16.5482 65.8684 17.0363 66.5424 16.2461 66.7051C16.2461 66.0775 16.2461 65.4732 16.2461 64.8457C16.4553 63.3814 16.4553 61.8939 16.2461 60.4297C16.2693 59.8951 16.2693 59.3373 16.2693 58.8027Z" fill="url(#paint3_linear_2134_888)"/>
<path d="M16.2695 60.4297C16.6414 61.8939 16.6182 63.3814 16.2695 64.8457C16.2695 63.3814 16.2695 61.8939 16.2695 60.4297Z" fill="url(#paint4_linear_2134_888)"/>
<path d="M64.8457 16.2695C63.4512 16.6414 62.0566 16.6414 60.6621 16.2695C62.0566 16.2695 63.4512 16.2695 64.8457 16.2695Z" fill="url(#paint5_linear_2134_888)"/>
<path d="M72.0508 17.6639C72.167 17.4547 72.3994 17.4314 72.6086 17.4082C77.9543 18.4076 82.9049 20.4529 87.4603 23.3814C99.616 31.1676 106.728 42.2773 108.983 56.5016C109.029 56.734 109.006 56.9664 109.006 57.1988C108.68 57.4777 108.843 57.8729 108.75 58.1982C108.262 58.0588 108.309 57.6172 108.262 57.2453C107.332 49.8775 104.822 43.1141 100.615 37.0014C94.1076 27.5883 85.2291 21.4523 74.1658 18.4773C73.4221 18.2914 72.5854 18.3379 72.0508 17.6639Z" fill="url(#paint6_linear_2134_888)"/>
<path d="M18.1287 51.598C17.9195 51.4817 17.9195 51.2493 17.873 51.0634C19.6859 43.8351 23.1723 37.5132 28.0764 31.9118C28.4482 31.4702 28.8898 31.0751 29.285 30.68C29.5174 30.587 29.5871 30.7497 29.6568 30.9124C29.4709 31.7956 28.7504 32.3302 28.2158 32.9577C23.9625 37.9548 20.8248 43.5794 18.9654 49.9013C18.7795 50.4823 18.826 51.2493 18.1287 51.598Z" fill="url(#paint7_linear_2134_888)"/>
<path d="M29.5406 30.9586C29.4477 30.8656 29.3547 30.7727 29.2617 30.6797C29.6336 30.1219 30.1217 29.657 30.6562 29.2852C30.7492 29.3781 30.8422 29.4711 30.9352 29.5641C30.8189 30.3311 30.3309 30.7959 29.5406 30.9586Z" fill="url(#paint8_linear_2134_888)"/>
<path d="M29.5405 30.9584C30.0054 30.4935 30.4935 30.0054 30.9583 29.5406C35.3278 25.5197 40.1854 22.2658 45.7171 20.081C53.9913 16.8271 62.4979 15.9439 71.2603 17.5476C71.5159 17.5941 71.7948 17.6174 72.0505 17.6406C77.0011 18.8027 81.789 20.4529 86.1353 23.1258C99.0812 31.0049 106.542 42.4865 108.564 57.501C108.587 57.7334 108.68 57.9426 108.727 58.175C109.006 62.591 108.913 66.9838 108.099 71.3533C104.729 89.6449 90.0864 104.473 71.8646 107.983C46.9257 112.794 23.2651 97.2451 17.78 72.4457C17.2687 70.1447 17.0827 67.774 16.7573 65.4498C16.7573 63.7763 16.7573 62.1261 16.7573 60.4527C17.0595 57.4777 17.4778 54.5027 18.1054 51.5742C19.4534 46.7166 21.3825 42.1146 24.1251 37.8613C25.7288 35.3976 27.5882 33.1431 29.5405 30.9584Z" fill="#FEFEFE"/>
<path d="M30.1216 62.8466C30.1216 44.8339 44.8106 30.0984 62.7536 30.1216C80.9522 30.1449 95.5948 44.7642 95.5716 62.8931C95.5483 80.9058 80.8825 95.5716 62.8931 95.5484C44.7642 95.5484 30.1216 80.9058 30.1216 62.8466Z" fill="url(#paint9_linear_2134_888)"/>
<path d="M37.9777 36.1418C37.1642 34.0267 36.4437 32.1441 35.7232 30.2847C35.4676 29.6572 35.1422 29.0761 35.9556 28.6113C36.7459 28.1464 36.8621 28.9832 37.141 29.2853C38.6982 30.9355 40.2322 32.6554 41.743 34.3521C42.0451 34.6775 42.7424 34.9797 41.9986 35.6304C41.2084 36.3045 41.0689 35.4213 40.79 35.1423C39.6744 33.9802 38.6285 32.7484 37.3502 31.656C38.001 33.3295 38.6517 35.0029 39.3025 36.6996C39.442 37.0714 39.8603 37.4898 39.442 37.8617C39.0236 38.2103 38.6517 37.7222 38.3031 37.5595C36.7459 36.7925 35.2119 36.0023 33.5152 35.4445C34.6076 36.6298 35.6767 37.8384 36.7691 39.0238C37.0713 39.3724 37.6058 39.6513 36.9318 40.2091C36.281 40.767 36.1183 40.1162 35.8627 39.8373C34.2125 38.0476 32.5855 36.2347 30.9586 34.3986C30.7262 34.1429 30.0986 33.9338 30.6564 33.3992C31.0515 33.0041 31.3769 32.7252 32.0277 33.097C33.8871 34.1197 35.793 35.0261 37.9777 36.1418Z" fill="url(#paint10_linear_2134_888)"/>
<path d="M99.6621 67.1464C101.777 67.2626 103.52 67.3556 105.263 67.4253C105.705 67.4485 106.193 67.3323 106.17 68.0993C106.147 68.8663 105.682 68.7268 105.217 68.7036C102.753 68.5641 100.266 68.4479 97.8028 68.2852C97.4774 68.262 96.966 68.5177 96.8963 67.8901C96.8498 67.3788 96.8963 66.9604 97.4774 66.6583C99.4297 65.6821 101.359 64.6362 103.311 63.3579C101.498 63.2649 99.7086 63.1487 97.8957 63.0557C97.5239 63.0325 97.0822 63.1255 97.1287 62.4979C97.152 62.0563 97.2217 61.7774 97.7795 61.8007C100.476 61.9634 103.195 62.1028 105.891 62.2423C106.193 62.2655 106.426 62.312 106.402 62.6839C106.402 63.172 106.356 63.5671 105.845 63.8227C104.218 64.6362 102.614 65.4962 101.01 66.3329C100.662 66.5421 100.313 66.7745 99.6621 67.1464Z" fill="url(#paint11_linear_2134_888)"/>
<path d="M29.7499 53.829C29.5639 54.6193 29.285 55.6884 29.0061 56.7808C28.9131 57.1759 28.6575 57.2224 28.3088 57.1294C25.7057 56.4322 23.1026 55.7117 20.4995 55.0376C20.0811 54.9214 19.9417 54.7355 20.0811 54.2939C20.3368 53.4804 20.4995 52.6437 20.7784 51.8535C21.1735 50.6914 22.0102 49.9708 23.1956 49.7849C25.1479 49.506 26.9608 49.9476 28.5413 51.133C29.3083 51.714 29.7499 52.5042 29.7499 53.829Z" fill="url(#paint12_linear_2134_888)"/>
<path d="M51.644 23.8233C52.0856 25.613 52.5272 27.3561 52.9688 29.1225C53.085 29.5641 53.2709 30.0057 52.5504 30.1684C51.8764 30.3311 51.8764 29.9128 51.7602 29.4944C51.1559 27.054 50.5284 24.6136 49.9473 22.1731C49.8776 21.8942 49.5057 21.4759 50.017 21.2667C50.4586 21.0807 50.9235 20.9413 51.3883 21.4294C52.7829 22.8936 54.2006 24.3114 55.6184 25.7524C55.7811 25.9151 55.8741 26.1243 56.0135 26.3335C56.1065 26.2637 56.1762 26.2173 56.2692 26.1475C55.8508 24.4044 55.4325 22.6612 54.9676 20.918C54.8514 20.43 54.712 20.0813 55.4092 19.8954C56.1065 19.7094 56.1065 20.1511 56.1995 20.5462C56.8038 22.9866 57.4313 25.427 58.0124 27.8675C58.0821 28.1928 58.4307 28.6344 57.8264 28.8436C57.3848 28.9831 56.9897 29.0761 56.5713 28.6344C55.2233 27.1934 53.8055 25.8221 52.411 24.4276C52.225 24.1719 52.0624 23.893 51.644 23.8233Z" fill="url(#paint13_linear_2134_888)"/>
<path d="M24.0787 65.7752C22.7306 65.7752 21.4523 65.5428 20.3599 64.7061C18.6632 63.4277 18.7097 61.1268 20.4761 59.9182C22.289 58.6631 25.7289 58.6863 27.5418 59.9647C29.4476 61.2895 29.3779 63.7067 27.4255 64.9617C26.4029 65.5893 25.264 65.7752 24.0787 65.7752Z" fill="url(#paint14_linear_2134_888)"/>
<path d="M23.8464 75.0489C23.2653 75.0722 22.6378 74.9327 22.0102 74.6771C20.0811 73.8636 19.5698 71.6788 20.8946 70.0751C22.3124 68.3552 25.729 67.472 27.8208 68.2622C29.9358 69.0757 30.4936 71.3534 28.9829 73.0501C27.9602 74.2354 25.8684 75.0489 23.8464 75.0489Z" fill="url(#paint15_linear_2134_888)"/>
<path d="M99.8482 54.0848C99.2904 55.3631 98.0353 55.7583 97.1056 56.5485C96.9197 56.7112 96.6175 56.8274 96.5711 56.502C96.5246 56.0372 95.897 55.5258 96.5711 55.061C97.1986 54.6194 97.8494 54.1778 98.4537 53.7129C98.8256 53.434 99.1277 53.0854 99.058 52.5508C98.965 51.9465 98.8488 51.5049 98.0586 51.8071C97.4543 52.0395 96.7802 52.1092 96.1759 52.3417C95.6414 52.5276 95.4322 52.3881 95.2927 51.8536C95.1765 51.3422 95.316 51.2028 95.7808 51.0633C98.3142 50.4126 100.848 49.7153 103.381 49.018C103.916 48.8786 104.148 48.9715 104.241 49.5294C104.334 50.0639 104.52 50.5753 104.659 51.0866C105.124 52.8297 104.938 53.6432 103.939 54.294C102.614 55.1307 101.15 55.0842 99.8482 54.0848Z" fill="url(#paint16_linear_2134_888)"/>
<path d="M52.2249 106.054C50.9466 106.077 50.505 105.566 50.6212 104.427C50.6909 103.776 50.5282 103.126 50.4352 102.475C50.3423 101.87 49.7845 101.731 49.2964 101.638C48.6921 101.499 48.8083 102.126 48.6921 102.428C48.4597 102.986 48.2737 103.59 48.111 104.195C47.9948 104.636 47.8089 104.822 47.2975 104.66C46.763 104.497 46.6468 104.288 46.8327 103.753C47.6694 101.289 48.4597 98.8258 49.2266 96.3621C49.4126 95.781 49.6682 95.6416 50.2261 95.874C50.8071 96.1064 51.3882 96.2691 51.9925 96.4783C53.1081 96.8269 53.9681 97.3615 53.9681 98.7095C53.9681 100.22 53.1778 101.475 51.946 101.894C51.853 101.94 51.7368 101.987 51.5973 102.033C52.4108 103.242 51.9227 104.636 52.2249 106.054Z" fill="url(#paint17_linear_2134_888)"/>
<path d="M24.6132 78.4657C24.6132 79.0467 24.5667 79.6278 24.6132 80.1856C24.7759 81.6034 25.752 82.3936 27.193 82.2542C28.3784 82.1379 29.4475 81.6731 30.2843 80.7899C31.2604 79.7672 31.3069 78.4657 30.5167 77.4198C30.1448 76.9317 29.7962 76.862 29.2384 77.1409C28.6341 77.4198 28.7735 77.7452 29.0059 78.1403C29.401 78.8143 28.7968 78.8608 28.4249 79.0932C27.9368 79.3954 27.7741 79.1165 27.5882 78.7213C26.705 77.0014 26.6817 77.0247 28.4016 76.2112C28.4481 76.1879 28.4714 76.1647 28.5178 76.1647C29.3778 76.0252 30.0518 74.7469 31.0745 75.7928C32.2598 76.9782 33.0501 78.3262 32.4923 80.0461C31.6788 82.5098 27.7973 84.3227 25.3569 83.4395C23.9624 82.9282 22.87 81.1385 23.0327 79.6278C23.0792 79.0235 23.0792 79.0235 24.6132 78.4657Z" fill="url(#paint18_linear_2134_888)"/>
<path d="M101.336 78.1171C101.568 77.8382 101.638 77.7453 101.708 77.6523C103.172 76.0951 103.404 74.9097 102.452 73.8173C101.266 72.4693 98.663 72.0277 97.3382 72.9341C96.5945 73.4455 96.3853 74.1892 96.2923 75.0259C96.2226 75.6767 96.6875 75.7464 97.1291 75.9091C97.6869 76.1183 97.8263 75.8162 97.8961 75.3746C98.0123 74.6773 98.4074 74.8167 98.9187 74.933C99.4998 75.0724 99.523 75.3281 99.3836 75.8394C98.9187 77.6523 98.9187 77.7453 97.1058 77.1177C96.2459 76.8388 94.8746 77.1642 94.8048 75.5605C94.7119 73.6082 95.3859 72.1439 96.8037 71.4466C98.942 70.424 102.591 71.4001 103.939 73.3292C104.915 74.7238 104.683 76.8156 103.451 78.0242C102.777 78.7447 102.173 78.0474 101.336 78.1171Z" fill="url(#paint19_linear_2134_888)"/>
<path d="M50.4584 30.5171C49.6217 31.4003 48.9477 31.284 48.3434 30.4706C47.9948 30.0057 47.6229 30.0057 47.1581 30.3079C46.6932 30.5868 46.2284 30.8657 45.7403 31.0749C44.7874 31.4467 44.1366 31.9581 44.6247 33.1202C44.8803 33.7245 44.369 33.9801 43.9274 34.0964C43.2999 34.2358 43.5323 33.6547 43.4858 33.3991C43.0442 30.703 42.6491 27.9837 42.2075 25.2876C42.1145 24.7762 42.161 24.4508 42.6723 24.1487C43.2069 23.8465 43.4393 24.1487 43.7647 24.4276C45.9959 26.4497 48.2272 28.4717 50.4584 30.5171Z" fill="url(#paint20_linear_2134_888)"/>
<path d="M80.8593 33.3989C79.8134 33.2595 79.3021 32.7946 79.6275 31.772C79.8134 31.1677 79.581 30.8423 78.9999 30.6331C78.5583 30.4937 78.14 30.2612 77.7448 30.0521C76.8152 29.5175 75.932 29.1921 75.2115 30.4007C74.8861 30.9585 74.4212 30.5866 74.1191 30.3775C73.5845 30.0056 74.1888 29.7964 74.3747 29.6105C76.3038 27.5884 78.2562 25.6128 80.1853 23.5907C80.4642 23.2886 80.7431 23.0794 81.1847 23.3351C81.5333 23.5442 81.8122 23.6837 81.7657 24.195C81.4404 27.263 81.1614 30.331 80.8593 33.3989Z" fill="url(#paint21_linear_2134_888)"/>
<path d="M60.6385 107.03C60.6617 107.263 60.7315 107.588 60.3828 107.518C59.9877 107.425 59.244 107.658 59.244 107.007C59.2904 105.148 57.9192 105.334 56.757 105.078C55.6879 104.846 54.8047 104.776 54.4328 106.124C54.2701 106.728 53.7123 106.542 53.3637 106.403C52.8059 106.17 53.294 105.822 53.4102 105.566C54.6885 103.149 55.9901 100.732 57.2916 98.3144C57.5008 97.9193 57.6402 97.5939 58.2213 97.6869C58.8024 97.7799 58.9418 98.082 59.0348 98.6166C59.5693 101.406 60.1039 104.218 60.6385 107.03Z" fill="url(#paint22_linear_2134_888)"/>
<path d="M95.1996 48.2505C93.991 48.2505 93.2705 47.6229 92.7592 46.6932C92.2246 45.7403 92.1549 44.7874 92.8289 43.8577C93.224 43.2999 93.7353 42.9048 94.3164 42.5794C95.8969 41.6962 97.5006 40.813 99.0811 39.9065C99.4994 39.6741 99.7318 39.6276 100.011 40.0925C100.29 40.5805 100.22 40.813 99.7318 41.0919C98.4303 41.7659 97.152 42.5096 95.8736 43.2301C95.5018 43.4393 95.1299 43.6485 94.7812 43.9042C94.0143 44.462 93.8051 45.1825 94.2699 46.0425C94.758 46.9257 95.5482 47.0651 96.3617 46.6467C97.9887 45.8333 99.5691 44.9268 101.15 44.0436C101.545 43.8344 101.893 43.4858 102.242 44.1831C102.567 44.8106 102.149 44.9036 101.8 45.1128C100.29 45.9495 98.7557 46.8094 97.2217 47.6462C96.5709 47.9483 95.8736 48.204 95.1996 48.2505Z" fill="url(#paint23_linear_2134_888)"/>
<path d="M60.5688 22.9399C60.5688 22.1265 60.5456 21.313 60.5688 20.4995C60.592 20.0347 60.2899 19.3606 61.2428 19.3839C62.1493 19.4071 61.8471 20.0114 61.8471 20.453C61.8704 22.08 61.8239 23.7069 61.8704 25.3339C61.8936 26.2171 62.1028 27.0538 63.1952 27.2397C64.3108 27.4257 65.0545 26.8679 65.101 25.636C65.1708 23.8464 65.1475 22.08 65.1475 20.2903C65.1475 19.779 65.1243 19.3839 65.8448 19.4071C66.542 19.4304 66.4258 19.872 66.4258 20.2903C66.4258 22.1032 66.4723 23.9394 66.4026 25.7522C66.3096 27.8673 65.3799 28.8667 63.6135 28.9132C61.9401 28.9597 60.8477 28.1229 60.685 26.4495C60.5688 25.3106 60.6618 24.1253 60.6618 22.9632C60.6153 22.9399 60.592 22.9399 60.5688 22.9399Z" fill="url(#paint24_linear_2134_888)"/>
<path d="M48.3434 96.3153C48.3899 98.8952 46.0424 100.359 43.7879 99.1044C43.1604 98.7557 42.8582 98.779 42.5793 99.453C42.3236 100.057 41.9285 100.592 41.6496 101.196C41.4172 101.661 41.2313 101.824 40.6967 101.522C40.1621 101.219 40.2318 100.987 40.4643 100.545C41.7193 98.3141 42.9744 96.1061 44.1598 93.8516C44.5084 93.2009 44.8338 93.1544 45.3916 93.5495C45.9959 93.9679 46.6699 94.27 47.2975 94.6651C47.9482 94.9905 48.3434 95.5483 48.3434 96.3153Z" fill="url(#paint25_linear_2134_888)"/>
<path d="M86.7631 95.2C86.6004 95.7114 86.1356 95.7811 85.8334 96.06C85.508 96.3621 84.7643 96.5248 84.927 96.9664C85.1594 97.6172 85.694 98.1983 86.1588 98.7561C86.3448 98.9653 86.5772 98.6631 86.7631 98.5469C87.2047 98.2448 87.6696 97.9658 88.0879 97.6172C88.576 97.1989 88.8782 97.1989 89.25 97.7799C89.6219 98.3145 89.4824 98.5469 88.9944 98.8723C88.1576 99.4069 87.3209 99.9879 86.5307 100.615C86.1123 100.941 85.9031 100.848 85.6242 100.453C84.1135 98.268 82.5795 96.06 81.0223 93.8985C80.6969 93.4336 80.8828 93.2477 81.2547 92.992C82.0217 92.4807 82.7887 91.9461 83.5324 91.3883C83.9508 91.0629 84.2297 90.9235 84.6248 91.5045C84.9967 92.0623 84.9502 92.3645 84.3924 92.6434C84.16 92.7596 83.9508 92.9455 83.7184 93.1082C82.6492 93.8752 82.626 94.3633 83.6254 95.293C83.9043 95.5719 84.067 95.4789 84.2994 95.293C84.6481 95.0373 84.9967 94.8049 85.3453 94.5725C85.5545 94.433 85.7637 94.0844 86.0194 94.3168C86.3448 94.5492 86.5307 94.8979 86.7631 95.2Z" fill="url(#paint26_linear_2134_888)"/>
<path d="M81.2313 95.3397C78.8141 95.4326 78.0471 95.8975 77.7914 97.199C77.4893 98.7098 78.6979 101.011 80.1389 101.638C81.394 102.196 82.3237 101.755 83.6252 99.9881C83.7182 100.732 84.6711 101.336 83.9506 102.08C82.9512 103.126 81.6961 103.753 80.1854 103.358C77.7217 102.707 75.5834 98.3844 76.5364 96.0369C77.0012 94.8516 78.5584 93.8522 79.86 93.8754C80.7664 93.8986 80.5573 94.8516 81.2313 95.3397Z" fill="url(#paint27_linear_2134_888)"/>
<path d="M90.6675 31.8651C89.6449 29.936 88.8314 29.4014 87.5531 29.75C86.0656 30.1451 84.5316 32.3067 84.6013 33.8406C84.6711 35.1422 85.5078 35.8395 87.4369 36.1881C86.6466 37.6988 86.1353 37.8383 84.7408 36.9086C83.2068 35.886 82.6955 34.5612 83.2533 32.7947C83.7879 31.0748 84.8338 29.7035 86.3677 28.7274C88.2039 27.5653 90.3886 28.1696 91.4345 30.0754C91.7134 30.5635 91.7134 30.5635 90.6675 31.8651Z" fill="url(#paint28_linear_2134_888)"/>
<path d="M67.1 99.7322C65.659 99.2673 64.311 98.7328 63.2883 100.267C62.4516 101.522 62.6143 103.962 63.6137 105.101C64.8688 106.565 66.2401 105.938 67.7043 105.031C67.4022 105.845 68.0529 106.751 67.1 107.123C65.7985 107.658 64.4504 107.774 63.2186 106.891C61.057 105.334 60.7781 100.383 62.7305 98.5701C63.5904 97.7566 65.4731 97.4777 66.5654 97.989C67.4254 98.4074 66.6817 99.1976 67.1 99.7322Z" fill="url(#paint29_linear_2134_888)"/>
<path d="M71.2604 23.9625C71.3301 24.4739 72.0506 24.1717 72.4457 24.4274C72.8408 24.6598 73.7473 24.2647 73.5148 25.3338C73.3754 25.9381 73.2127 26.1705 72.5387 26.0079C70.7955 25.6127 70.7955 25.636 70.3539 27.4489C70.2609 27.8672 70.1215 28.2623 70.0518 28.6807C69.982 29.1455 69.7961 29.378 69.2848 29.2153C68.7967 29.0758 68.5875 28.9364 68.7502 28.3321C69.4242 25.8452 70.0285 23.335 70.6328 20.8016C70.7723 20.1973 71.0047 20.0579 71.5857 20.2205C72.5154 20.4762 73.4451 20.7319 74.3981 20.9178C75.1186 21.0573 74.9094 21.4989 74.8397 21.9637C74.7467 22.5215 74.4678 22.661 73.9565 22.475C73.7008 22.3821 73.4451 22.3356 73.1662 22.2659C71.6787 21.9172 71.3301 22.1729 71.2604 23.9625Z" fill="url(#paint30_linear_2134_888)"/>
<path d="M89.3893 41.1854C89.1336 40.8833 88.8314 40.6741 88.692 40.3719C88.5293 40.0698 88.8779 39.9303 89.0639 39.7676C90.5049 38.4893 91.9459 37.1878 93.4334 35.9792C94.1307 35.4213 94.2934 35.003 93.5496 34.3987C92.8756 33.8641 93.0383 33.4458 93.6658 33.0042C94.0144 32.7485 94.2004 32.6788 94.5025 33.0506C95.409 34.143 96.3387 35.2354 97.3148 36.2813C97.8029 36.8159 97.4078 37.0018 97.0824 37.2575C96.7803 37.5364 96.4549 37.978 96.1062 37.3504C95.409 36.1883 94.7814 36.3975 93.9447 37.2575C92.7129 38.4661 91.3416 39.5585 90.0168 40.6973C89.8309 40.8368 89.6217 40.9995 89.3893 41.1854Z" fill="url(#paint31_linear_2134_888)"/>
<path d="M72.6082 106.054C72.6779 106.333 72.3293 106.403 71.9806 106.496C71.4693 106.635 71.3066 106.403 71.2137 105.938C70.8185 104.009 70.3537 102.08 70.0051 100.15C69.8656 99.3369 69.5867 99.0813 68.7965 99.3602C68.2619 99.5461 67.7738 99.732 67.5646 98.7791C67.3322 97.7565 67.983 97.8959 68.4943 97.7797C69.6564 97.524 70.8418 97.3149 72.0039 97.0127C72.6082 96.85 72.8406 97.0359 72.9336 97.5938C73.0033 98.0586 73.166 98.5699 72.4222 98.5699C71.1904 98.5932 71.051 99.1742 71.3531 100.267C71.8412 102.103 72.1666 103.985 72.6082 106.054Z" fill="url(#paint32_linear_2134_888)"/>
<path d="M93.2008 90.9932C93.2008 92.1088 92.3409 93.0153 91.2717 93.0385C90.1793 93.0385 89.3194 92.1553 89.2729 91.0629C89.2496 89.9008 90.1793 88.9479 91.2717 88.9711C92.3641 88.9711 93.2008 89.8776 93.2008 90.9932Z" fill="url(#paint33_linear_2134_888)"/>
<path d="M40.0692 94.0846C40.0925 95.2002 39.2325 96.1299 38.1866 96.1764C37.0942 96.2228 36.1646 95.2699 36.1646 94.1078C36.1646 92.9922 37.0478 92.0857 38.0936 92.0625C39.1628 92.0625 40.0692 92.9922 40.0692 94.0846Z" fill="url(#paint34_linear_2134_888)"/>
<path d="M31.0282 43.4163C31.005 44.5319 30.0985 45.4151 29.0526 45.4151C27.9835 45.3918 27.1235 44.5086 27.1235 43.3698C27.1235 42.1844 28.03 41.278 29.1456 41.3245C30.2147 41.3709 31.0515 42.3006 31.0282 43.4163Z" fill="url(#paint35_linear_2134_888)"/>
<path d="M97.5475 59.6161C96.9897 59.7556 96.8967 59.4534 96.8735 59.0583C96.8502 58.7097 96.7573 58.361 97.2918 58.3146C100.011 58.0357 102.731 57.7567 105.45 57.4546C106.077 57.3849 105.984 57.8265 106.077 58.1751C106.217 58.6632 105.938 58.7794 105.543 58.8259C102.87 59.0583 100.174 59.3372 97.5475 59.6161Z" fill="url(#paint36_linear_2134_888)"/>
<path d="M77.3268 104.706C77.3501 105.171 76.9084 105.078 76.676 105.194C76.3506 105.357 76.1182 105.31 75.9788 104.892C75.142 102.289 74.3053 99.6626 73.4454 97.0595C73.2827 96.5482 73.5616 96.4552 73.9335 96.3623C74.2124 96.2925 74.5145 96.0136 74.6772 96.5249C75.5372 99.1978 76.4204 101.894 77.3036 104.567C77.3036 104.613 77.3268 104.66 77.3268 104.706Z" fill="url(#paint37_linear_2134_888)"/>
<path d="M62.9629 31.7021C80.0459 31.7021 93.9912 45.6939 93.968 62.8002C93.9448 79.9994 80.0459 93.875 62.8235 93.875C45.8102 93.875 31.8416 79.9064 31.8184 62.8932C31.7951 45.6242 45.7172 31.7021 62.9629 31.7021Z" fill="#FCFCFC"/>
<path d="M24.6365 51.0864C25.357 51.1328 26.1705 51.342 26.9375 51.7604C28.1228 52.4344 28.4482 54.2938 27.6115 55.3164C27.4023 55.5721 27.2164 55.4559 26.984 55.3862C25.4965 54.991 23.9857 54.5959 22.4982 54.1776C22.2426 54.1078 22.0101 54.0614 22.0101 53.6662C21.9869 52.1555 23.0328 51.0399 24.6365 51.0864Z" fill="#FCFCFC"/>
<path d="M23.8927 60.3831C24.6829 60.3599 25.4267 60.4296 26.124 60.8247C26.7747 61.1734 27.2163 61.6847 27.1931 62.4749C27.1698 63.2187 26.7515 63.6835 26.124 63.9857C24.7759 64.6132 23.4279 64.5667 22.0798 64.0322C21.3128 63.73 20.8247 63.149 20.8712 62.2425C20.9177 61.4058 21.4755 60.941 22.196 60.662C22.7306 60.4296 23.2884 60.3599 23.8927 60.3831Z" fill="#FCFCFC"/>
<path d="M24.2645 73.6777C23.1721 73.6312 22.2192 73.4221 21.9403 72.2832C21.6614 71.1443 22.4051 70.4703 23.3116 70.0055C24.2878 69.5174 25.3337 69.2617 26.4493 69.4244C27.286 69.5639 27.9135 69.9357 28.1227 70.8189C28.3087 71.6324 27.8903 72.2367 27.2628 72.7015C26.3563 73.3523 25.3104 73.608 24.2645 73.6777Z" fill="#FCFCFC"/>
<path d="M103.358 52.3644C103.311 53.3871 102.614 53.5962 101.847 53.666C100.964 53.7357 100.104 52.7828 100.313 51.6439C100.499 50.6445 101.754 50.7375 102.475 50.7142C103.427 50.691 102.986 51.8531 103.358 52.3644Z" fill="#F6F6F6"/>
<path d="M51.1557 100.685C50.6444 100.453 49.7612 100.685 49.5287 99.8715C49.3428 99.2439 50.3422 97.5008 50.6444 97.6402C51.3881 97.9656 52.5502 97.8262 52.6432 99.0348C52.7129 99.9644 52.0157 100.708 51.1557 100.685Z" fill="#FAFAFA"/>
<path d="M43.4858 25.8916C44.2993 26.6818 44.8571 27.1932 45.3917 27.7277C45.8101 28.1461 46.7397 28.6807 46.5306 28.9828C46.089 29.5639 45.229 29.866 44.5085 30.2146C44.0901 30.4238 44.1366 29.9822 44.0901 29.7498C43.9274 28.5645 43.7415 27.4023 43.4858 25.8916Z" fill="#F7F7F7"/>
<path d="M80.3248 25.1714C80.1853 26.6124 80.0459 27.7745 79.9296 28.9599C79.8832 29.4479 79.7437 29.4944 79.2789 29.3317C77.0011 28.495 77.0011 28.495 78.6746 26.7751C79.1627 26.3103 79.6507 25.8222 80.3248 25.1714Z" fill="#F5F5F5"/>
<path d="M55.7812 103.59C56.4553 102.312 57.1061 101.104 57.8963 99.5928C58.152 101.104 58.3611 102.312 58.5703 103.497C58.64 103.939 58.4773 104.032 58.059 103.939C57.3617 103.823 56.6412 103.73 55.7812 103.59Z" fill="#F7F7F7"/>
<path d="M46.8791 96.8036C46.6467 97.4311 46.4375 98.2678 45.5543 98.2678C44.8803 98.2678 43.8344 98.0122 43.8809 97.2917C43.9506 96.5944 44.3225 95.6182 45.1592 95.2696C45.6473 95.0604 46.8791 96.2458 46.8791 96.8036Z" fill="#F6F6F6"/>
<path d="M62.8001 92.8759C46.3214 92.8759 32.7944 79.3024 32.7944 62.8237C32.8177 46.1358 46.2517 32.7251 62.9628 32.7251C79.5112 32.7251 92.9685 46.2521 92.9452 62.8935C92.9685 79.4419 79.4183 92.8759 62.8001 92.8759Z" fill="url(#paint38_linear_2134_888)"/>
<path d="M70.3305 62.3353C68.8895 66.1238 67.4717 69.9123 66.0307 73.6775C65.7982 74.2818 65.7053 74.8629 64.7756 74.8629C63.8459 74.8396 63.8459 74.2121 63.6367 73.6775C62.1725 69.889 60.7314 66.1006 59.2439 62.2191C58.965 62.5445 59.058 62.8466 59.058 63.1023C59.0813 66.6584 59.0812 70.2377 59.151 73.7937C59.1742 74.6072 58.9418 74.8396 58.1283 74.8164C55.8738 74.7699 55.8738 74.8164 55.8738 72.5851C55.8738 66.7746 55.8971 60.964 55.8506 55.1535C55.8506 54.3168 56.0133 54.0146 56.9197 54.0379C59.3602 54.0843 59.3834 54.0379 60.2666 56.3621C61.6611 59.9646 63.0324 63.5904 64.4037 67.1929C64.5432 67.5416 64.7059 67.8902 64.9383 68.4945C65.6588 66.6351 66.2863 64.9617 66.9371 63.3115C68.0062 60.5224 69.0754 57.7566 70.098 54.9443C70.3537 54.2238 70.7023 54.0379 71.4228 54.0379C73.8168 54.0611 73.8168 54.0379 73.8168 56.4783C73.8168 62.1726 73.7936 67.867 73.84 73.5613C73.84 74.4677 73.6773 74.8396 72.6779 74.8164C70.4932 74.7466 70.4932 74.7931 70.5164 72.6316C70.5164 69.4242 70.5396 66.1935 70.5396 62.9861C70.5164 62.8002 70.6791 62.5445 70.3305 62.3353Z" fill="#FDFDFD"/>
<path d="M51.6439 60.0347C50.017 59.1282 48.6922 58.1288 47.0187 57.7802C44.5086 57.2456 42.533 58.1985 41.6033 60.5925C40.6736 63.0329 40.6504 65.5198 41.6033 67.9602C42.7189 70.7958 45.3685 71.8882 48.2506 70.9585C49.5521 70.5401 48.9013 69.564 48.9711 68.8434C49.064 68.0532 48.3203 68.3786 47.9484 68.3786C45.9961 68.3321 45.9961 68.3554 45.9961 66.4495C45.9961 64.2182 45.9961 64.2182 48.2273 64.2415C49.3197 64.2415 50.3888 64.2647 51.4812 64.2415C52.0623 64.2182 52.3179 64.3577 52.2947 65.0085C52.2714 67.6813 52.2714 70.3542 52.2947 73.027C52.2947 73.4919 52.1088 73.7243 51.7369 73.9335C49.4591 75.2118 47.042 75.6767 44.4621 75.3513C42.4865 75.0956 40.9293 74.0265 39.7207 72.4692C36.6759 68.4948 36.6527 60.7319 39.6045 56.6878C42.5795 52.6204 47.7857 53.1317 50.9931 55.0143C51.2953 55.2003 51.3882 55.4327 51.3882 55.7813C51.365 57.0829 51.4115 58.4542 51.6439 60.0347Z" fill="#FEFEFE"/>
<path d="M77.9075 64.4505C77.9075 61.3128 77.9308 58.1751 77.8843 55.0606C77.8843 54.3169 78.0702 54.0612 78.8372 54.0844C80.7198 54.1542 82.6257 54.0844 84.5315 54.1309C87.4136 54.2007 89.087 55.5952 89.5751 58.4075C89.8772 60.1274 89.854 61.8706 89.2962 63.5673C88.5524 65.845 87.1114 67.0071 84.7175 67.1233C83.904 67.1698 83.0905 67.193 82.277 67.1466C81.5565 67.1001 81.3474 67.3092 81.3706 68.053C81.4171 70.0286 81.3706 72.0042 81.3938 73.9798C81.3938 74.6073 81.2776 74.8397 80.5804 74.863C77.8843 74.9094 77.9075 74.9327 77.8843 72.2598C77.9075 69.6335 77.9075 67.0303 77.9075 64.4505Z" fill="#FDFDFD"/>
<path d="M81.394 60.7785C81.394 58.2451 81.394 58.2451 83.9507 58.3148C85.6706 58.3613 86.2517 58.8959 86.2749 60.4996C86.3214 62.4519 85.7403 63.1492 83.9972 63.2886C81.394 63.4513 81.394 63.4513 81.394 60.7785Z" fill="url(#paint39_linear_2134_888)"/>
<defs>
<linearGradient id="paint0_linear_2134_888" x1="62.7539" y1="57.1758" x2="62.7539" y2="109.238" gradientUnits="userSpaceOnUse">
<stop stop-color="#005EB8"/>
<stop offset="1" stop-color="#00B5E2"/>
</linearGradient>
<linearGradient id="paint1_linear_2134_888" x1="51.6473" y1="16.2461" x2="51.6473" y2="29.5871" gradientUnits="userSpaceOnUse">
<stop stop-color="#005EB8"/>
<stop offset="1" stop-color="#00B5E2"/>
</linearGradient>
<linearGradient id="paint2_linear_2134_888" x1="17.2922" y1="51.063" x2="17.2922" y2="60.4761" gradientUnits="userSpaceOnUse">
<stop stop-color="#005EB8"/>
<stop offset="1" stop-color="#00B5E2"/>
</linearGradient>
<linearGradient id="paint3_linear_2134_888" x1="16.6979" y1="58.8027" x2="16.6979" y2="66.7051" gradientUnits="userSpaceOnUse">
<stop stop-color="#005EB8"/>
<stop offset="1" stop-color="#00B5E2"/>
</linearGradient>
<linearGradient id="paint4_linear_2134_888" x1="16.4047" y1="60.4297" x2="16.4047" y2="64.8457" gradientUnits="userSpaceOnUse">
<stop stop-color="#005EB8"/>
<stop offset="1" stop-color="#00B5E2"/>
</linearGradient>
<linearGradient id="paint5_linear_2134_888" x1="62.7539" y1="16.2695" x2="62.7539" y2="16.5484" gradientUnits="userSpaceOnUse">
<stop stop-color="#005EB8"/>
<stop offset="1" stop-color="#00B5E2"/>
</linearGradient>
<linearGradient id="paint6_linear_2134_888" x1="90.5312" y1="17.4082" x2="90.5312" y2="58.1982" gradientUnits="userSpaceOnUse">
<stop stop-color="#005EB8"/>
<stop offset="1" stop-color="#00B5E2"/>
</linearGradient>
<linearGradient id="paint7_linear_2134_888" x1="23.7649" y1="30.6528" x2="23.7649" y2="51.598" gradientUnits="userSpaceOnUse">
<stop stop-color="#005EB8"/>
<stop offset="1" stop-color="#00B5E2"/>
</linearGradient>
<linearGradient id="paint8_linear_2134_888" x1="30.0984" y1="29.2852" x2="30.0984" y2="30.9586" gradientUnits="userSpaceOnUse">
<stop stop-color="#005EB8"/>
<stop offset="1" stop-color="#00B5E2"/>
</linearGradient>
<linearGradient id="paint9_linear_2134_888" x1="62.8466" y1="30.1216" x2="62.8466" y2="95.5484" gradientUnits="userSpaceOnUse">
<stop stop-color="#005EB8"/>
<stop offset="1" stop-color="#00B5E2"/>
</linearGradient>
<linearGradient id="paint10_linear_2134_888" x1="36.3809" y1="28.4736" x2="36.3809" y2="40.4282" gradientUnits="userSpaceOnUse">
<stop stop-color="#005EB8"/>
<stop offset="1" stop-color="#00B5E2"/>
</linearGradient>
<linearGradient id="paint11_linear_2134_888" x1="101.643" y1="61.7993" x2="101.643" y2="68.7283" gradientUnits="userSpaceOnUse">
<stop stop-color="#005EB8"/>
<stop offset="1" stop-color="#00B5E2"/>
</linearGradient>
<linearGradient id="paint12_linear_2134_888" x1="24.8893" y1="49.7041" x2="24.8893" y2="57.1702" gradientUnits="userSpaceOnUse">
<stop stop-color="#005EB8"/>
<stop offset="1" stop-color="#00B5E2"/>
</linearGradient>
<linearGradient id="paint13_linear_2134_888" x1="53.9635" y1="19.8516" x2="53.9635" y2="30.2044" gradientUnits="userSpaceOnUse">
<stop stop-color="#005EB8"/>
<stop offset="1" stop-color="#00B5E2"/>
</linearGradient>
<linearGradient id="paint14_linear_2134_888" x1="24.025" y1="58.9912" x2="24.025" y2="65.7752" gradientUnits="userSpaceOnUse">
<stop stop-color="#005EB8"/>
<stop offset="1" stop-color="#00B5E2"/>
</linearGradient>
<linearGradient id="paint15_linear_2134_888" x1="24.9969" y1="67.9702" x2="24.9969" y2="75.0514" gradientUnits="userSpaceOnUse">
<stop stop-color="#005EB8"/>
<stop offset="1" stop-color="#00B5E2"/>
</linearGradient>
<linearGradient id="paint16_linear_2134_888" x1="100.078" y1="48.9604" x2="100.078" y2="56.7092" gradientUnits="userSpaceOnUse">
<stop stop-color="#005EB8"/>
<stop offset="1" stop-color="#00B5E2"/>
</linearGradient>
<linearGradient id="paint17_linear_2134_888" x1="50.359" y1="95.7671" x2="50.359" y2="106.055" gradientUnits="userSpaceOnUse">
<stop stop-color="#005EB8"/>
<stop offset="1" stop-color="#00B5E2"/>
</linearGradient>
<linearGradient id="paint18_linear_2134_888" x1="27.8458" y1="75.3848" x2="27.8458" y2="83.6664" gradientUnits="userSpaceOnUse">
<stop stop-color="#005EB8"/>
<stop offset="1" stop-color="#00B5E2"/>
</linearGradient>
<linearGradient id="paint19_linear_2134_888" x1="99.6707" y1="71.0347" x2="99.6707" y2="78.3534" gradientUnits="userSpaceOnUse">
<stop stop-color="#005EB8"/>
<stop offset="1" stop-color="#00B5E2"/>
</linearGradient>
<linearGradient id="paint20_linear_2134_888" x1="46.3137" y1="24.0229" x2="46.3137" y2="34.1177" gradientUnits="userSpaceOnUse">
<stop stop-color="#005EB8"/>
<stop offset="1" stop-color="#00B5E2"/>
</linearGradient>
<linearGradient id="paint21_linear_2134_888" x1="77.8371" y1="23.2202" x2="77.8371" y2="33.3989" gradientUnits="userSpaceOnUse">
<stop stop-color="#005EB8"/>
<stop offset="1" stop-color="#00B5E2"/>
</linearGradient>
<linearGradient id="paint22_linear_2134_888" x1="56.8808" y1="97.6709" x2="56.8808" y2="107.528" gradientUnits="userSpaceOnUse">
<stop stop-color="#005EB8"/>
<stop offset="1" stop-color="#00B5E2"/>
</linearGradient>
<linearGradient id="paint23_linear_2134_888" x1="97.3501" y1="39.7354" x2="97.3501" y2="48.2505" gradientUnits="userSpaceOnUse">
<stop stop-color="#005EB8"/>
<stop offset="1" stop-color="#00B5E2"/>
</linearGradient>
<linearGradient id="paint24_linear_2134_888" x1="63.491" y1="19.3833" x2="63.491" y2="28.915" gradientUnits="userSpaceOnUse">
<stop stop-color="#005EB8"/>
<stop offset="1" stop-color="#00B5E2"/>
</linearGradient>
<linearGradient id="paint25_linear_2134_888" x1="44.3168" y1="93.2974" x2="44.3168" y2="101.675" gradientUnits="userSpaceOnUse">
<stop stop-color="#005EB8"/>
<stop offset="1" stop-color="#00B5E2"/>
</linearGradient>
<linearGradient id="paint26_linear_2134_888" x1="85.158" y1="91.1064" x2="85.158" y2="100.813" gradientUnits="userSpaceOnUse">
<stop stop-color="#005EB8"/>
<stop offset="1" stop-color="#00B5E2"/>
</linearGradient>
<linearGradient id="paint27_linear_2134_888" x1="80.2614" y1="93.875" x2="80.2614" y2="103.477" gradientUnits="userSpaceOnUse">
<stop stop-color="#005EB8"/>
<stop offset="1" stop-color="#00B5E2"/>
</linearGradient>
<linearGradient id="paint28_linear_2134_888" x1="87.3132" y1="28.1362" x2="87.3132" y2="37.4921" gradientUnits="userSpaceOnUse">
<stop stop-color="#005EB8"/>
<stop offset="1" stop-color="#00B5E2"/>
</linearGradient>
<linearGradient id="paint29_linear_2134_888" x1="64.5614" y1="97.7314" x2="64.5614" y2="107.54" gradientUnits="userSpaceOnUse">
<stop stop-color="#005EB8"/>
<stop offset="1" stop-color="#00B5E2"/>
</linearGradient>
<linearGradient id="paint30_linear_2134_888" x1="71.809" y1="20.1577" x2="71.809" y2="29.267" gradientUnits="userSpaceOnUse">
<stop stop-color="#005EB8"/>
<stop offset="1" stop-color="#00B5E2"/>
</linearGradient>
<linearGradient id="paint31_linear_2134_888" x1="93.0969" y1="32.792" x2="93.0969" y2="41.1854" gradientUnits="userSpaceOnUse">
<stop stop-color="#005EB8"/>
<stop offset="1" stop-color="#00B5E2"/>
</linearGradient>
<linearGradient id="paint32_linear_2134_888" x1="70.2573" y1="96.9561" x2="70.2573" y2="106.536" gradientUnits="userSpaceOnUse">
<stop stop-color="#005EB8"/>
<stop offset="1" stop-color="#00B5E2"/>
</linearGradient>
<linearGradient id="paint33_linear_2134_888" x1="91.2366" y1="88.9707" x2="91.2366" y2="93.0385" gradientUnits="userSpaceOnUse">
<stop stop-color="#005EB8"/>
<stop offset="1" stop-color="#00B5E2"/>
</linearGradient>
<linearGradient id="paint34_linear_2134_888" x1="38.1171" y1="92.0625" x2="38.1171" y2="96.178" gradientUnits="userSpaceOnUse">
<stop stop-color="#005EB8"/>
<stop offset="1" stop-color="#00B5E2"/>
</linearGradient>
<linearGradient id="paint35_linear_2134_888" x1="29.0761" y1="41.3228" x2="29.0761" y2="45.4151" gradientUnits="userSpaceOnUse">
<stop stop-color="#005EB8"/>
<stop offset="1" stop-color="#00B5E2"/>
</linearGradient>
<linearGradient id="paint36_linear_2134_888" x1="101.483" y1="57.4473" x2="101.483" y2="59.6507" gradientUnits="userSpaceOnUse">
<stop stop-color="#005EB8"/>
<stop offset="1" stop-color="#00B5E2"/>
</linearGradient>
<linearGradient id="paint37_linear_2134_888" x1="75.3628" y1="96.2236" x2="75.3628" y2="105.281" gradientUnits="userSpaceOnUse">
<stop stop-color="#005EB8"/>
<stop offset="1" stop-color="#00B5E2"/>
</linearGradient>
<linearGradient id="paint38_linear_2134_888" x1="62.8698" y1="32.7251" x2="62.8698" y2="92.8759" gradientUnits="userSpaceOnUse">
<stop stop-color="#005EB8"/>
<stop offset="1" stop-color="#00B5E2"/>
</linearGradient>
<linearGradient id="paint39_linear_2134_888" x1="83.8358" y1="58.2964" x2="83.8358" y2="63.3467" gradientUnits="userSpaceOnUse">
<stop stop-color="#005EB8"/>
<stop offset="1" stop-color="#00B5E2"/>
</linearGradient>
</defs>
</svg>
