<svg width="68" height="65" viewBox="0 0 68 65" fill="none" xmlns="http://www.w3.org/2000/svg">
<path d="M30.2031 0.0136719C32.7902 0.0136719 35.3074 0.0136719 37.8945 0.0136719C38.7336 0.281641 39.5727 0.616606 40.4816 0.75059C56.3539 3.96622 67.7512 17.6996 67.1918 33.1748C66.6324 48.918 54.6059 61.4455 37.6148 63.9242C22.5117 66.135 7.05898 56.7561 2.02461 42.2188C1.25547 40.008 0.766016 37.7303 0.136719 35.5195C0.136719 33.0408 0.136719 30.6291 0.136719 28.1504C0.416406 27.3465 0.76602 26.5426 0.905864 25.6717C2.72383 17.9006 6.84922 11.6033 13.4219 6.64589C18.3863 2.96132 24.1898 1.28652 30.2031 0.0136719ZM16.4285 33.5768C11.9535 33.5768 7.4086 33.5768 2.65391 33.5768C3.14336 42.1518 6.70938 48.918 12.9324 54.4113C15.7293 52.6695 18.1766 51.1957 20.4141 49.8559C19.0156 44.3625 17.757 39.1371 16.4285 33.5768ZM64.7445 30.8301C64.325 22.4561 60.9687 15.6898 54.7457 10.2635C51.8789 11.9383 49.3617 13.4121 47.1242 14.752C48.4527 20.3123 49.7113 25.6047 50.9699 30.8301C55.4449 30.8301 59.9199 30.8301 64.7445 30.8301ZM12.5129 10.2635C6.42968 15.9578 3.00352 22.59 2.65391 30.8971C7.54844 30.8971 12.0934 30.8971 16.4285 30.8971C17.757 25.3367 19.0156 20.1113 20.2742 14.752C17.8969 13.3451 15.3797 11.8713 12.5129 10.2635ZM64.7445 33.5098C59.7801 33.5098 55.2352 33.5098 50.9699 33.5098C49.6414 39.0701 48.3828 44.2955 47.1242 49.5209C49.7113 50.9947 52.2285 52.4686 54.9555 53.9424C60.9687 48.382 64.325 41.8168 64.7445 33.5098ZM22.3719 48.784C25.6582 48.181 28.1055 47.8461 30.4129 47.3102C31.182 47.1092 32.3707 46.4393 32.3707 45.9703C32.5105 41.8168 32.4406 37.5963 32.4406 33.5098C27.6859 33.5098 23.5605 33.5098 18.666 33.5098C19.9945 38.8021 21.1832 43.6926 22.3719 48.784ZM18.7359 30.8301C23.7004 30.8301 27.8957 30.8301 32.3707 30.8301C32.3707 26.2746 32.3707 21.8531 32.3707 17.4316C29.1543 16.8957 26.1477 16.3598 22.3719 15.6898C21.1832 20.7143 19.9945 25.6047 18.7359 30.8301ZM48.7324 30.8301C47.334 25.3367 46.1453 20.5133 44.8867 15.6229C41.041 16.3598 38.0344 16.8957 35.1676 17.4316C35.1676 22.1211 35.1676 26.4756 35.1676 30.8301C39.5727 30.8301 43.698 30.8301 48.7324 30.8301ZM45.0266 48.583C46.2152 43.5586 47.4039 38.6682 48.5926 33.5768C43.4883 33.5768 39.293 33.5768 35.0277 33.5768C35.0277 38.1992 35.0277 42.4867 35.0277 46.9082C38.2441 47.4441 41.2508 47.9131 45.0266 48.583ZM38.6637 61.2445C38.8035 61.5795 39.0133 61.8475 39.1531 62.1824C43.698 60.2396 48.243 58.3639 52.7879 56.4211C52.718 56.0191 52.718 55.6172 52.648 55.2822C50.4105 54.0094 48.173 52.8035 45.9355 51.5307C43.3484 54.9473 40.9711 58.0959 38.6637 61.2445ZM39.0133 2.22442C38.8734 2.49238 38.7336 2.76035 38.5937 3.02832C40.9711 6.24395 43.4184 9.45957 45.9355 12.8092C48.243 11.4693 50.4805 10.1295 52.648 8.85664C52.648 8.45469 52.648 8.11973 52.648 7.71777C48.1031 5.97598 43.5582 4.1002 39.0133 2.22442ZM21.4629 12.8092C24.05 9.2586 26.2875 6.17695 28.5949 3.02832C28.4551 2.76035 28.3152 2.49238 28.1754 2.22442C23.7004 4.1002 19.2254 6.04297 14.7504 7.91875C14.8203 8.32071 14.8902 8.65566 14.9602 9.05762C16.9879 10.2635 19.1555 11.5363 21.4629 12.8092ZM15.2398 55.4832C15.1699 55.8851 15.1 56.2201 15.0301 56.6221C19.4352 58.4309 23.8402 60.2397 28.1754 62.0484C28.3152 61.7805 28.4551 61.5125 28.5949 61.3115C26.2875 58.1629 23.9801 55.0812 21.6027 51.7986C19.2953 53.0715 17.2676 54.2773 15.2398 55.4832ZM32.2309 15.1539C32.2309 10.9334 32.2309 7.24882 32.2309 3.63125C31.9512 3.49726 31.6715 3.43027 31.4617 3.29628C28.9445 6.5789 26.4273 9.79453 23.4906 13.6801C26.9867 14.283 29.434 14.685 32.2309 15.1539ZM23.4906 50.9277C26.4973 54.7463 29.0144 57.8949 31.5316 61.1106C31.7414 60.9766 32.0211 60.8426 32.2309 60.7086C32.2309 57.024 32.2309 53.3395 32.2309 49.2529C29.434 49.7219 26.9168 50.2578 23.4906 50.9277ZM35.0277 15.1539C37.9644 14.618 40.4816 14.216 43.9777 13.6131C40.8313 9.72754 38.3141 6.57891 35.7969 3.43028C35.5172 3.56426 35.3074 3.76524 35.0277 3.89922C35.0277 7.38281 35.0277 10.9334 35.0277 15.1539ZM35.0277 60.5076C35.3074 60.6416 35.657 60.7756 35.9367 60.9096C38.384 57.6939 40.9012 54.4783 43.8379 50.5928C40.2719 50.0568 37.7547 49.6549 35.0277 49.2529C35.0277 53.3395 35.0277 56.89 35.0277 60.5076Z" fill="url(#paint0_linear_2134_857)"/>
<path d="M0.136719 35.5195C0.766016 37.7973 1.25547 40.075 2.02461 42.2188C7.05898 56.7561 22.5117 66.135 37.6148 63.9242C54.5359 61.4455 66.6324 48.918 67.1918 33.1748C67.7512 17.6996 56.3539 3.96622 40.4816 0.75059C39.5727 0.549613 38.7336 0.214648 37.8945 0.0136719C47.8934 0.0136719 57.9621 0.0136719 67.9609 0.0136719C67.9609 21.6521 67.9609 43.3576 67.9609 64.9961C45.3762 64.9961 22.7215 64.9961 0.136719 64.9961C0.136719 55.1482 0.136719 45.3674 0.136719 35.5195Z" fill="white"/>
<path d="M30.2031 0.0136719C24.1898 1.28652 18.3863 2.96133 13.4219 6.71289C6.91914 11.6703 2.72383 17.9676 0.905864 25.7387C0.696098 26.5426 0.346484 27.3465 0.136719 28.2174C0.136719 18.8385 0.136719 9.45957 0.136719 0.0806682C10.1355 0.013676 20.2043 0.0136719 30.2031 0.0136719Z" fill="white"/>
<path d="M16.4285 33.5767C17.757 39.137 19.0855 44.4294 20.3441 49.8558C18.1066 51.1956 15.7293 52.6694 12.8625 54.4112C6.63945 48.9179 3.07344 42.1517 2.58398 33.5767C7.40859 33.5767 11.9535 33.5767 16.4285 33.5767Z" fill="white"/>
<path d="M64.7443 30.8303C59.9896 30.8303 55.4447 30.8303 50.9697 30.8303C49.7111 25.6049 48.4525 20.3125 47.124 14.7521C49.3615 13.4793 51.8787 11.9385 54.7455 10.2637C60.9686 15.69 64.2549 22.4562 64.7443 30.8303Z" fill="white"/>
<path d="M12.5128 10.2637C15.3796 11.9385 17.8968 13.3453 20.2741 14.7521C19.0155 20.1115 17.7569 25.3369 16.4284 30.8973C12.0933 30.8973 7.54834 30.8973 2.65381 30.8973C3.00342 22.5232 6.49951 15.958 12.5128 10.2637Z" fill="white"/>
<path d="M64.7444 33.5098C64.3249 41.8168 60.9686 48.449 54.8854 54.0094C52.2284 52.4686 49.6413 50.9947 47.0542 49.5879C48.3128 44.3625 49.5714 39.0701 50.8999 33.5098C55.2351 33.5098 59.78 33.5098 64.7444 33.5098Z" fill="white"/>
<path d="M22.3718 48.7841C21.1831 43.6927 19.9944 38.8022 18.7358 33.4429C23.6304 33.4429 27.7558 33.4429 32.5104 33.4429C32.5104 37.5294 32.5804 41.7499 32.4405 45.9034C32.4405 46.3724 31.2518 47.1093 30.4827 47.2433C28.1054 47.8462 25.6581 48.2481 22.3718 48.7841Z" fill="white"/>
<path d="M18.7358 30.8302C19.9944 25.5378 21.1831 20.7144 22.3718 15.6899C26.0776 16.3599 29.1542 16.8958 32.3706 17.4317C32.3706 21.9202 32.3706 26.2747 32.3706 30.8302C27.8956 30.8302 23.7003 30.8302 18.7358 30.8302Z" fill="white"/>
<path d="M48.7323 30.8303C43.6979 30.8303 39.5726 30.8303 35.1675 30.8303C35.1675 26.4758 35.1675 22.1213 35.1675 17.4318C38.0343 16.8959 41.0409 16.36 44.8866 15.623C46.1452 20.5135 47.3339 25.4039 48.7323 30.8303Z" fill="white"/>
<path d="M45.0267 48.5829C41.2509 47.98 38.2442 47.444 35.0278 46.9081C35.0278 42.4866 35.0278 38.1321 35.0278 33.5767C39.2931 33.5767 43.4884 33.5767 48.5927 33.5767C47.404 38.6681 46.2153 43.4915 45.0267 48.5829Z" fill="white"/>
<path d="M38.6636 61.2447C41.0409 58.0961 43.3483 54.9475 45.9354 51.4639C48.1729 52.7367 50.4104 53.9426 52.6479 55.2154C52.7179 55.6174 52.7179 56.0193 52.7878 56.3543C48.2429 58.2971 43.6979 60.1729 39.153 62.1156C39.0132 61.8477 38.8034 61.5127 38.6636 61.2447Z" fill="white"/>
<path d="M39.0132 2.22461C43.5581 4.10039 48.103 5.90918 52.7179 7.78496C52.7179 8.18692 52.7179 8.52187 52.7179 8.92383C50.4804 10.1967 48.3128 11.4695 46.0054 12.8764C43.4882 9.45976 41.0409 6.31113 38.6636 3.09551C38.7335 2.82754 38.8733 2.49258 39.0132 2.22461Z" fill="white"/>
<path d="M21.4631 12.8094C19.1557 11.4695 17.058 10.2637 14.8904 9.05781C14.8205 8.65586 14.7506 8.3209 14.6807 7.91895C19.1557 6.04316 23.6307 4.10039 28.1057 2.22461C28.2455 2.49258 28.3854 2.76054 28.5252 3.02851C26.2877 6.17715 23.9803 9.32578 21.4631 12.8094Z" fill="white"/>
<path d="M15.24 55.483C17.2678 54.2771 19.3654 53.0713 21.6029 51.7314C24.0502 55.0141 26.3576 58.1627 28.5951 61.2443C28.4553 61.5123 28.3154 61.7803 28.1756 61.9812C23.7705 60.1725 19.3654 58.3637 15.0303 56.5549C15.0303 56.2199 15.1002 55.8849 15.24 55.483Z" fill="white"/>
<path d="M32.231 15.154C29.3643 14.6851 26.917 14.2831 23.4209 13.6802C26.4275 9.79463 28.8748 6.51201 31.392 3.29639C31.6717 3.43037 31.9514 3.49736 32.1611 3.63135C32.2311 7.24893 32.231 10.9335 32.231 15.154Z" fill="white"/>
<path d="M23.4907 50.9278C26.847 50.2579 29.3642 49.789 32.231 49.186C32.231 53.2726 32.231 56.9571 32.231 60.6417C32.0212 60.7757 31.7415 60.9097 31.5317 61.0437C29.0845 57.895 26.5673 54.7464 23.4907 50.9278Z" fill="white"/>
<path d="M35.0278 15.1539C35.0278 10.9334 35.0278 7.38281 35.0278 3.83222C35.3075 3.69824 35.5173 3.49727 35.797 3.36328C38.3142 6.51191 40.8314 9.66054 43.9778 13.5461C40.4818 14.216 37.9646 14.685 35.0278 15.1539Z" fill="white"/>
<path d="M35.0278 60.5076C35.0278 56.957 35.0278 53.3395 35.0278 49.2529C37.8247 49.6549 40.3419 50.0568 43.838 50.5928C40.8314 54.4783 38.3841 57.6939 35.9368 60.9096C35.6571 60.7086 35.3774 60.6416 35.0278 60.5076Z" fill="white"/>
<defs>
<linearGradient id="paint0_linear_2134_857" x1="33.6741" y1="0.0136719" x2="33.6741" y2="64.2463" gradientUnits="userSpaceOnUse">
<stop stop-color="#005EB8"/>
<stop offset="1" stop-color="#00B5E2"/>
</linearGradient>
</defs>
</svg>
