<svg width="153" height="83" viewBox="0 0 153 83" fill="none" xmlns="http://www.w3.org/2000/svg">
<path d="M137 64.0001C132.6 67.6001 130.4 67.8001 126.9 63.9001C125.7 62.5001 125 62.6001 123.7 63.4001C115.6 67.9001 107.5 68.2001 100 62.1001C98.5001 60.9001 97.5001 61.5001 96.1001 62.4001C86.3001 68.6001 76.3001 68.7001 66.7001 62.0001C64.3001 60.4001 63.1001 61.7001 61.4001 62.6001C48.3001 70.2001 33.0001 67.0001 25.8001 55.1001C25.1001 54.0001 24.3001 52.8001 24.1001 51.5001C23.2001 47.2001 21.7001 44.2001 16.3001 44.9001C13.9001 45.2001 12.6001 42.8001 12.6001 40.4001C12.6001 37.7001 14.2001 35.6001 16.9001 35.9001C21.6001 36.4001 23.0001 33.8001 24.5001 30.1001C30.8001 13.8001 55.5001 10.6001 65.7001 27.1001C70.1001 21.1001 75.6001 17.3001 83.0001 16.5001C88.6001 15.9001 94.0001 16.6001 99.1001 18.7001C104.4 20.8001 107.1 24.8001 106.9 30.8001C106.7 36.3001 106.8 41.8001 106.9 47.3001C107 53.1001 109.7 55.9001 115.4 56.1001C121.5 56.3001 125.8 53.0001 126 47.4001C126.2 39.4001 126.1 31.4001 126 23.4001C126 20.6001 126.3 17.9001 129.2 16.7001C132.3 15.4001 135.1 16.3001 137.1 19.2001C137.7 34.0001 137.8 49.0001 137 64.0001Z" fill="url(#paint0_linear_2134_849)"/>
<path d="M83.1001 57.0001C79.8001 56.7001 76.4001 56.1001 76.0001 51.9001C75.6001 48.0001 78.4001 46.4001 81.8001 45.8001C83.9001 45.4001 86.0001 45.0001 88.1001 44.7001C90.3001 44.4001 93.3001 42.2001 94.4001 45.8001C95.5001 49.3001 94.7001 52.8001 91.3001 55.0001C89.0001 56.5001 86.1001 56.9001 83.1001 57.0001Z" fill="#FCFDFD"/>
<path d="M47.7001 56.1003C42.2001 55.7003 38.2001 53.8003 35.7001 49.2003C34.5001 47.0003 34.9001 45.8003 37.6001 45.8003C43.9001 45.8003 50.2001 45.8003 56.6001 45.8003C59.1001 45.8003 59.4001 47.1003 58.4001 49.0003C56.1001 53.6003 52.1001 55.6003 47.7001 56.1003Z" fill="#FCFDFD"/>
<path d="M87.2 26C87.6 26.1 88.8 26.1 89.9 26.6C92.2 27.6 94.9 28.8 94.8 31.6C94.7 34.5 91.5 34 89.6 34.4C85.7 35.4 81.8 36 77.9 36.6C75.9 37 74.6 36.6 75.5 34C76.9 30 82.3 26 87.2 26Z" fill="#FBFCFD"/>
<path d="M54.7003 35.1999C48.8003 35.1999 43.5003 35.1999 38.2003 35.1999C37.3003 35.1999 35.8003 35.9999 35.5003 34.0999C35.4003 32.9999 35.4003 31.9999 36.3003 30.9999C39.1003 27.9999 42.2003 25.3999 46.6003 26.2999C50.9003 27.1999 53.4003 30.2999 54.7003 35.1999Z" fill="#FAFCFC"/>
<defs>
<linearGradient id="paint0_linear_2134_849" x1="75.0876" y1="16.1187" x2="75.0876" y2="67.0382" gradientUnits="userSpaceOnUse">
<stop stop-color="#005EB8"/>
<stop offset="1" stop-color="#00B5E2"/>
</linearGradient>
</defs>
</svg>
