<svg width="64" height="64" viewBox="0 0 64 64" fill="none" xmlns="http://www.w3.org/2000/svg">
<path fill-rule="evenodd" clip-rule="evenodd" d="M27.8935 3.33337H36.1068C40.3815 3.33337 43.7335 3.33337 46.4108 3.58671C49.1388 3.84804 51.3735 4.38671 53.3442 5.59204C55.4082 6.85665 57.1435 8.59198 58.4082 10.656C59.6135 12.624 60.1522 14.8614 60.4135 17.5894C60.6668 20.2667 60.6668 23.6187 60.6668 27.896V30.7414C60.6668 33.784 60.6668 36.1707 60.5335 38.0987C60.4002 40.0587 60.1255 41.6907 59.4988 43.2C58.7283 45.0605 57.5988 46.7509 56.1749 48.1748C54.751 49.5987 53.0606 50.7281 51.2002 51.4987C49.0535 52.3894 46.6108 52.5867 43.2615 52.6454C42.4347 52.6418 41.6082 52.6739 40.7842 52.7414C40.2562 52.8 40.0508 52.8854 39.9308 52.9547C39.8055 53.0294 39.6322 53.1627 39.3335 53.5734C39.0108 54.016 38.6455 54.6294 38.0642 55.6107L36.6188 58.0534C34.5575 61.5387 29.4455 61.5387 27.3815 58.0534L25.9362 55.6107C25.5421 54.9139 25.1186 54.2342 24.6668 53.5734C24.3682 53.1627 24.1948 53.0294 24.0695 52.9547C23.9495 52.8854 23.7442 52.8 23.2162 52.7414C22.6508 52.68 21.9095 52.6614 20.7362 52.6427C17.3895 52.5867 14.9468 52.3894 12.8002 51.4987C10.9397 50.7281 9.24933 49.5987 7.82544 48.1748C6.40155 46.7509 5.27207 45.0605 4.5015 43.2C3.87483 41.6907 3.60016 40.0587 3.46416 38.0987C3.3335 36.1707 3.3335 33.784 3.3335 30.7387V27.896C3.3335 23.6187 3.3335 20.2694 3.58683 17.5894C3.84816 14.8614 4.38683 12.624 5.59216 10.656C6.85677 8.59198 8.5921 6.85665 10.6562 5.59204C12.6242 4.38671 14.8615 3.84804 17.5895 3.58671C20.2668 3.33337 23.6188 3.33337 27.8962 3.33337M17.9708 7.57071C15.5335 7.80271 13.9842 8.24537 12.7468 9.00271C11.2207 9.93759 9.93771 11.2206 9.00283 12.7467C8.2455 13.984 7.80283 15.5334 7.57083 17.9734C7.33616 20.4374 7.3335 23.6 7.3335 28.0027V30.6694C7.3335 33.8027 7.3335 36.0534 7.45616 37.8294C7.57616 39.5867 7.8055 40.7334 8.1975 41.672C9.34776 44.4489 11.554 46.6551 14.3308 47.8054C15.7042 48.376 17.4588 48.5894 20.8082 48.648H20.8908C21.9522 48.6667 22.8828 48.6827 23.6562 48.768C24.4855 48.8614 25.2988 49.0454 26.0802 49.4987C26.8535 49.952 27.4135 50.552 27.8988 51.2187C28.3495 51.8374 28.8108 52.6187 29.3335 53.5014L30.8242 56.0187C30.9488 56.2182 31.1221 56.3827 31.3279 56.4967C31.5336 56.6108 31.7649 56.6706 32.0002 56.6706C32.2354 56.6706 32.4667 56.6108 32.6725 56.4967C32.8782 56.3827 33.0515 56.2182 33.1762 56.0187L34.6668 53.5014C35.1895 52.6187 35.6535 51.8374 36.1015 51.2187C36.5868 50.552 37.1468 49.9494 37.9202 49.4987C38.7015 49.0454 39.5148 48.8587 40.3442 48.768C41.1175 48.6827 42.0482 48.6667 43.1095 48.648H43.1948C46.5415 48.5894 48.2962 48.376 49.6695 47.8054C52.4464 46.6551 54.6526 44.4489 55.8028 41.672C56.1948 40.7334 56.4242 39.5867 56.5442 37.8294C56.6668 36.0534 56.6668 33.8027 56.6668 30.6694V28.0027C56.6668 23.6 56.6668 20.4374 56.4295 17.9707C56.1975 15.5334 55.7548 13.984 54.9975 12.7467C54.063 11.2219 52.781 9.93983 51.2562 9.00537C50.0188 8.24804 48.4695 7.80537 46.0295 7.57337C43.5655 7.33871 40.4028 7.33604 36.0002 7.33604H28.0002C23.5975 7.33604 20.4348 7.33604 17.9682 7.57337" fill="white"/>
<path d="M23.633 14.755C24.1543 14.295 24.7217 13.858 25.335 13.444C25.9637 13.03 26.6383 12.6697 27.359 12.363C28.0797 12.0563 28.8617 11.8187 29.705 11.65C30.5483 11.466 31.4607 11.374 32.442 11.374C33.776 11.374 34.9873 11.558 36.076 11.926C37.18 12.294 38.123 12.823 38.905 13.513C39.687 14.1877 40.2927 15.008 40.722 15.974C41.1513 16.94 41.366 18.021 41.366 19.217C41.366 20.3823 41.1973 21.3943 40.86 22.253C40.5227 23.0963 40.101 23.8323 39.595 24.461C39.089 25.0897 38.5293 25.634 37.916 26.094C37.318 26.554 36.7507 26.991 36.214 27.405C35.6773 27.8037 35.2097 28.2023 34.811 28.601C34.4277 28.9843 34.1977 29.4213 34.121 29.912L33.592 33.27H29.705L29.314 29.521C29.222 28.8003 29.3217 28.1717 29.613 27.635C29.9197 27.083 30.3183 26.5847 30.809 26.14C31.315 25.68 31.8747 25.243 32.488 24.829C33.1013 24.3997 33.6763 23.9397 34.213 23.449C34.7497 22.943 35.1943 22.3833 35.547 21.77C35.915 21.1413 36.099 20.3977 36.099 19.539C36.099 18.987 35.9917 18.4963 35.777 18.067C35.5777 17.6223 35.294 17.2467 34.926 16.94C34.558 16.618 34.1133 16.3727 33.592 16.204C33.086 16.0353 32.534 15.951 31.936 15.951C31.062 15.951 30.3183 16.0507 29.705 16.25C29.107 16.434 28.5933 16.6487 28.164 16.894C27.75 17.124 27.3973 17.3387 27.106 17.538C26.8147 17.722 26.554 17.814 26.324 17.814C25.772 17.814 25.3733 17.584 25.128 17.124L23.633 14.755ZM27.98 41.872C27.98 41.3967 28.0643 40.9443 28.233 40.515C28.417 40.0857 28.6623 39.7177 28.969 39.411C29.2757 39.1043 29.6437 38.859 30.073 38.675C30.5023 38.491 30.9623 38.399 31.453 38.399C31.9437 38.399 32.396 38.491 32.81 38.675C33.2393 38.859 33.6073 39.1043 33.914 39.411C34.236 39.7177 34.489 40.0857 34.673 40.515C34.857 40.9443 34.949 41.3967 34.949 41.872C34.949 42.3627 34.857 42.8227 34.673 43.252C34.489 43.666 34.236 44.0263 33.914 44.333C33.6073 44.6397 33.2393 44.8773 32.81 45.046C32.396 45.23 31.9437 45.322 31.453 45.322C30.9623 45.322 30.5023 45.23 30.073 45.046C29.6437 44.8773 29.2757 44.6397 28.969 44.333C28.6623 44.0263 28.417 43.666 28.233 43.252C28.0643 42.8227 27.98 42.3627 27.98 41.872Z" fill="white"/>
</svg>
